{
    "asset" : {
        "generator" : "Khronos glTF Blender I/O v1.1.45",
        "version" : "2.0"
    },
    "scene" : 0,
    "scenes" : [
        {
            "name" : "Scene",
            "nodes" : [
                0
            ]
        }
    ],
    "nodes" : [
        {
            "mesh" : 0,
            "name" : "tablet_v2"
        }
    ],
    "materials" : [
        {
            "doubleSided" : true,
            "emissiveFactor" : [
                0,
                0,
                0
            ],
            "name" : "tablet.005",
            "pbrMetallicRoughness" : {
                "baseColorFactor" : [
                    0.800000011920929,
                    0.800000011920929,
                    0.800000011920929,
                    1
                ],
                "metallicFactor" : 0,
                "roughnessFactor" : 0.5
            }
        },
        {
            "doubleSided" : true,
            "emissiveFactor" : [
                0,
                0,
                0
            ],
            "name" : "tablet_shadow.005",
            "pbrMetallicRoughness" : {
                "baseColorFactor" : [
                    0.800000011920929,
                    0.800000011920929,
                    0.800000011920929,
                    1
                ],
                "metallicFactor" : 0,
                "roughnessFactor" : 0.5
            }
        },
        {
            "doubleSided" : true,
            "emissiveFactor" : [
                0,
                0,
                0
            ],
            "name" : "navigation.002",
            "pbrMetallicRoughness" : {
                "baseColorFactor" : [
                    0.800000011920929,
                    0.800000011920929,
                    0.800000011920929,
                    1
                ],
                "metallicFactor" : 0,
                "roughnessFactor" : 0.5
            }
        },
        {
            "doubleSided" : true,
            "emissiveFactor" : [
                0,
                0,
                0
            ],
            "name" : "navigation_shadow.002",
            "pbrMetallicRoughness" : {
                "baseColorFactor" : [
                    0.800000011920929,
                    0.800000011920929,
                    0.800000011920929,
                    1
                ],
                "metallicFactor" : 0,
                "roughnessFactor" : 0.5
            }
        },
        {
            "doubleSided" : true,
            "emissiveFactor" : [
                0,
                0,
                0
            ],
            "name" : "blockselect.001",
            "pbrMetallicRoughness" : {
                "baseColorFactor" : [
                    0.800000011920929,
                    0.800000011920929,
                    0.800000011920929,
                    1
                ],
                "metallicFactor" : 0,
                "roughnessFactor" : 0.5
            }
        },
        {
            "doubleSided" : true,
            "emissiveFactor" : [
                0,
                0,
                0
            ],
            "name" : "blockselect_shadow.001",
            "pbrMetallicRoughness" : {
                "baseColorFactor" : [
                    0.800000011920929,
                    0.800000011920929,
                    0.800000011920929,
                    1
                ],
                "metallicFactor" : 0,
                "roughnessFactor" : 0.5
            }
        }
    ],
    "meshes" : [
        {
            "name" : "Cube.016",
            "primitives" : [
                {
                    "attributes" : {
                        "POSITION" : 0,
                        "NORMAL" : 1,
                        "TEXCOORD_0" : 2
                    },
                    "indices" : 3,
                    "material" : 0
                },
                {
                    "attributes" : {
                        "POSITION" : 4,
                        "NORMAL" : 5,
                        "TEXCOORD_0" : 6
                    },
                    "indices" : 7,
                    "material" : 1
                },
                {
                    "attributes" : {
                        "POSITION" : 8,
                        "NORMAL" : 9,
                        "TEXCOORD_0" : 10
                    },
                    "indices" : 11,
                    "material" : 2
                },
                {
                    "attributes" : {
                        "POSITION" : 12,
                        "NORMAL" : 13,
                        "TEXCOORD_0" : 14
                    },
                    "indices" : 15,
                    "material" : 3
                },
                {
                    "attributes" : {
                        "POSITION" : 16,
                        "NORMAL" : 17,
                        "TEXCOORD_0" : 18
                    },
                    "indices" : 11,
                    "material" : 4
                },
                {
                    "attributes" : {
                        "POSITION" : 19,
                        "NORMAL" : 20,
                        "TEXCOORD_0" : 21
                    },
                    "indices" : 22,
                    "material" : 5
                }
            ]
        }
    ],
    "accessors" : [
        {
            "bufferView" : 0,
            "componentType" : 5126,
            "count" : 72,
            "max" : [
                0.17883865535259247,
                0.006552999839186668,
                0.12399766594171524
            ],
            "min" : [
                -0.17921456694602966,
                -0.008696924895048141,
                -0.18996363878250122
            ],
            "type" : "VEC3"
        },
        {
            "bufferView" : 1,
            "componentType" : 5126,
            "count" : 72,
            "type" : "VEC3"
        },
        {
            "bufferView" : 2,
            "componentType" : 5126,
            "count" : 72,
            "type" : "VEC2"
        },
        {
            "bufferView" : 3,
            "componentType" : 5123,
            "count" : 120,
            "type" : "SCALAR"
        },
        {
            "bufferView" : 4,
            "componentType" : 5126,
            "count" : 184,
            "max" : [
                0.1798386573791504,
                0.006552999839186668,
                0.12499766796827316
            ],
            "min" : [
                -0.18021456897258759,
                -0.008696924895048141,
                -0.19096364080905914
            ],
            "type" : "VEC3"
        },
        {
            "bufferView" : 5,
            "componentType" : 5126,
            "count" : 184,
            "type" : "VEC3"
        },
        {
            "bufferView" : 6,
            "componentType" : 5126,
            "count" : 184,
            "type" : "VEC2"
        },
        {
            "bufferView" : 7,
            "componentType" : 5123,
            "count" : 264,
            "type" : "SCALAR"
        },
        {
            "bufferView" : 8,
            "componentType" : 5126,
            "count" : 4,
            "max" : [
                0.10540644824504852,
                -7.440452463924885e-06,
                -0.12454794347286224
            ],
            "min" : [
                -0.16793988645076752,
                -7.440452463924885e-06,
                -0.17879927158355713
            ],
            "type" : "VEC3"
        },
        {
            "bufferView" : 9,
            "componentType" : 5126,
            "count" : 4,
            "type" : "VEC3"
        },
        {
            "bufferView" : 10,
            "componentType" : 5126,
            "count" : 4,
            "type" : "VEC2"
        },
        {
            "bufferView" : 11,
            "componentType" : 5123,
            "count" : 6,
            "type" : "SCALAR"
        },
        {
            "bufferView" : 12,
            "componentType" : 5126,
            "count" : 92,
            "max" : [
                0.10740599781274796,
                0.006552999839186668,
                -0.1225479394197464
            ],
            "min" : [
                -0.16993989050388336,
                -7.440452463924885e-06,
                -0.1807989478111267
            ],
            "type" : "VEC3"
        },
        {
            "bufferView" : 13,
            "componentType" : 5126,
            "count" : 92,
            "type" : "VEC3"
        },
        {
            "bufferView" : 14,
            "componentType" : 5126,
            "count" : 92,
            "type" : "VEC2"
        },
        {
            "bufferView" : 15,
            "componentType" : 5123,
            "count" : 132,
            "type" : "SCALAR"
        },
        {
            "bufferView" : 16,
            "componentType" : 5126,
            "count" : 4,
            "max" : [
                0.16756397485733032,
                -7.440452463924885e-06,
                0.11283329874277115
            ],
            "min" : [
                0.11331333220005035,
                -7.440452463924885e-06,
                -0.17879927158355713
            ],
            "type" : "VEC3"
        },
        {
            "bufferView" : 17,
            "componentType" : 5126,
            "count" : 4,
            "type" : "VEC3"
        },
        {
            "bufferView" : 18,
            "componentType" : 5126,
            "count" : 4,
            "type" : "VEC2"
        },
        {
            "bufferView" : 19,
            "componentType" : 5126,
            "count" : 92,
            "max" : [
                0.16956400871276855,
                0.006552999839186668,
                0.114833302795887
            ],
            "min" : [
                0.11131299287080765,
                -7.440452463924885e-06,
                -0.18079927563667297
            ],
            "type" : "VEC3"
        },
        {
            "bufferView" : 20,
            "componentType" : 5126,
            "count" : 92,
            "type" : "VEC3"
        },
        {
            "bufferView" : 21,
            "componentType" : 5126,
            "count" : 92,
            "type" : "VEC2"
        },
        {
            "bufferView" : 22,
            "componentType" : 5123,
            "count" : 132,
            "type" : "SCALAR"
        }
    ],
    "bufferViews" : [
        {
            "buffer" : 0,
            "byteLength" : 864,
            "byteOffset" : 0
        },
        {
            "buffer" : 0,
            "byteLength" : 864,
            "byteOffset" : 864
        },
        {
            "buffer" : 0,
            "byteLength" : 576,
            "byteOffset" : 1728
        },
        {
            "buffer" : 0,
            "byteLength" : 240,
            "byteOffset" : 2304
        },
        {
            "buffer" : 0,
            "byteLength" : 2208,
            "byteOffset" : 2544
        },
        {
            "buffer" : 0,
            "byteLength" : 2208,
            "byteOffset" : 4752
        },
        {
            "buffer" : 0,
            "byteLength" : 1472,
            "byteOffset" : 6960
        },
        {
            "buffer" : 0,
            "byteLength" : 528,
            "byteOffset" : 8432
        },
        {
            "buffer" : 0,
            "byteLength" : 48,
            "byteOffset" : 8960
        },
        {
            "buffer" : 0,
            "byteLength" : 48,
            "byteOffset" : 9008
        },
        {
            "buffer" : 0,
            "byteLength" : 32,
            "byteOffset" : 9056
        },
        {
            "buffer" : 0,
            "byteLength" : 12,
            "byteOffset" : 9088
        },
        {
            "buffer" : 0,
            "byteLength" : 1104,
            "byteOffset" : 9100
        },
        {
            "buffer" : 0,
            "byteLength" : 1104,
            "byteOffset" : 10204
        },
        {
            "buffer" : 0,
            "byteLength" : 736,
            "byteOffset" : 11308
        },
        {
            "buffer" : 0,
            "byteLength" : 264,
            "byteOffset" : 12044
        },
        {
            "buffer" : 0,
            "byteLength" : 48,
            "byteOffset" : 12308
        },
        {
            "buffer" : 0,
            "byteLength" : 48,
            "byteOffset" : 12356
        },
        {
            "buffer" : 0,
            "byteLength" : 32,
            "byteOffset" : 12404
        },
        {
            "buffer" : 0,
            "byteLength" : 1104,
            "byteOffset" : 12436
        },
        {
            "buffer" : 0,
            "byteLength" : 1104,
            "byteOffset" : 13540
        },
        {
            "buffer" : 0,
            "byteLength" : 736,
            "byteOffset" : 14644
        },
        {
            "buffer" : 0,
            "byteLength" : 264,
            "byteOffset" : 15380
        }
    ],
    "buffers" : [
        {
            "byteLength" : 15644,
            "uri" : "data:application/octet-stream;base64,"
        }
    ]
}
