{
    "asset" : {
        "generator" : "Khronos glTF Blender I/O v1.1.45",
        "version" : "2.0"
    },
    "scene" : 0,
    "scenes" : [
        {
            "name" : "Scene",
            "nodes" : [
                0
            ]
        }
    ],
    "nodes" : [
        {
            "mesh" : 0,
            "name" : "battery_block"
        }
    ],
    "materials" : [
        {
            "doubleSided" : true,
            "emissiveFactor" : [
                0,
                0,
                0
            ],
            "name" : "battery_holder",
            "pbrMetallicRoughness" : {
                "baseColorFactor" : [
                    0.800000011920929,
                    0.800000011920929,
                    0.800000011920929,
                    1
                ],
                "metallicFactor" : 0,
                "roughnessFactor" : 0.5
            }
        },
        {
            "doubleSided" : true,
            "emissiveFactor" : [
                0,
                0,
                0
            ],
            "name" : "battery_holder_shadow",
            "pbrMetallicRoughness" : {
                "baseColorFactor" : [
                    0.800000011920929,
                    0.800000011920929,
                    0.800000011920929,
                    1
                ],
                "metallicFactor" : 0,
                "roughnessFactor" : 0.5
            }
        },
        {
            "doubleSided" : true,
            "emissiveFactor" : [
                0,
                0,
                0
            ],
            "name" : "base",
            "pbrMetallicRoughness" : {
                "baseColorFactor" : [
                    0.800000011920929,
                    0.800000011920929,
                    0.800000011920929,
                    1
                ],
                "metallicFactor" : 0,
                "roughnessFactor" : 0.5
            }
        },
        {
            "doubleSided" : true,
            "emissiveFactor" : [
                0,
                0,
                0
            ],
            "name" : "base_shadow",
            "pbrMetallicRoughness" : {
                "baseColorFactor" : [
                    0.800000011920929,
                    0.800000011920929,
                    0.800000011920929,
                    1
                ],
                "metallicFactor" : 0,
                "roughnessFactor" : 0.5
            }
        },
        {
            "doubleSided" : true,
            "emissiveFactor" : [
                0,
                0,
                0
            ],
            "name" : "plug_metal_shadow",
            "pbrMetallicRoughness" : {
                "baseColorFactor" : [
                    0.800000011920929,
                    0.800000011920929,
                    0.800000011920929,
                    1
                ],
                "metallicFactor" : 0,
                "roughnessFactor" : 0.5
            }
        },
        {
            "doubleSided" : true,
            "emissiveFactor" : [
                0,
                0,
                0
            ],
            "name" : "plug_metal",
            "pbrMetallicRoughness" : {
                "baseColorFactor" : [
                    0.800000011920929,
                    0.800000011920929,
                    0.800000011920929,
                    1
                ],
                "metallicFactor" : 0,
                "roughnessFactor" : 0.5
            }
        },
        {
            "doubleSided" : true,
            "emissiveFactor" : [
                0,
                0,
                0
            ],
            "name" : "battery_back",
            "pbrMetallicRoughness" : {
                "baseColorFactor" : [
                    0.800000011920929,
                    0.800000011920929,
                    0.800000011920929,
                    1
                ],
                "metallicFactor" : 0,
                "roughnessFactor" : 0.5
            }
        },
        {
            "doubleSided" : true,
            "emissiveFactor" : [
                0,
                0,
                0
            ],
            "name" : "battery_back_shadow",
            "pbrMetallicRoughness" : {
                "baseColorFactor" : [
                    0.800000011920929,
                    0.800000011920929,
                    0.800000011920929,
                    1
                ],
                "metallicFactor" : 0,
                "roughnessFactor" : 0.5
            }
        },
        {
            "doubleSided" : true,
            "emissiveFactor" : [
                0,
                0,
                0
            ],
            "name" : "battery_front",
            "pbrMetallicRoughness" : {
                "baseColorFactor" : [
                    0.800000011920929,
                    0.800000011920929,
                    0.800000011920929,
                    1
                ],
                "metallicFactor" : 0,
                "roughnessFactor" : 0.5
            }
        },
        {
            "doubleSided" : true,
            "emissiveFactor" : [
                0,
                0,
                0
            ],
            "name" : "battery_front_shadow",
            "pbrMetallicRoughness" : {
                "baseColorFactor" : [
                    0.800000011920929,
                    0.800000011920929,
                    0.800000011920929,
                    1
                ],
                "metallicFactor" : 0,
                "roughnessFactor" : 0.5
            }
        }
    ],
    "meshes" : [
        {
            "name" : "Cube.001",
            "primitives" : [
                {
                    "attributes" : {
                        "POSITION" : 0,
                        "NORMAL" : 1,
                        "TEXCOORD_0" : 2
                    },
                    "indices" : 3,
                    "material" : 0
                },
                {
                    "attributes" : {
                        "POSITION" : 4,
                        "NORMAL" : 5,
                        "TEXCOORD_0" : 6
                    },
                    "indices" : 7,
                    "material" : 1
                },
                {
                    "attributes" : {
                        "POSITION" : 8,
                        "NORMAL" : 9,
                        "TEXCOORD_0" : 10
                    },
                    "indices" : 11,
                    "material" : 2
                },
                {
                    "attributes" : {
                        "POSITION" : 12,
                        "NORMAL" : 13,
                        "TEXCOORD_0" : 14
                    },
                    "indices" : 15,
                    "material" : 3
                },
                {
                    "attributes" : {
                        "POSITION" : 16,
                        "NORMAL" : 17,
                        "TEXCOORD_0" : 18
                    },
                    "indices" : 19,
                    "material" : 4
                },
                {
                    "attributes" : {
                        "POSITION" : 20,
                        "NORMAL" : 21,
                        "TEXCOORD_0" : 22
                    },
                    "indices" : 23,
                    "material" : 5
                },
                {
                    "attributes" : {
                        "POSITION" : 24,
                        "NORMAL" : 25,
                        "TEXCOORD_0" : 26
                    },
                    "indices" : 27,
                    "material" : 6
                },
                {
                    "attributes" : {
                        "POSITION" : 28,
                        "NORMAL" : 29,
                        "TEXCOORD_0" : 30
                    },
                    "indices" : 31,
                    "material" : 7
                },
                {
                    "attributes" : {
                        "POSITION" : 32,
                        "NORMAL" : 33,
                        "TEXCOORD_0" : 34
                    },
                    "indices" : 35,
                    "material" : 8
                },
                {
                    "attributes" : {
                        "POSITION" : 36,
                        "NORMAL" : 37,
                        "TEXCOORD_0" : 38
                    },
                    "indices" : 39,
                    "material" : 9
                }
            ]
        }
    ],
    "accessors" : [
        {
            "bufferView" : 0,
            "componentType" : 5126,
            "count" : 1112,
            "max" : [
                0.04991523548960686,
                0.03739473596215248,
                0.020402653142809868
            ],
            "min" : [
                -0.04983839392662048,
                0.006040118634700775,
                -0.020401349291205406
            ],
            "type" : "VEC3"
        },
        {
            "bufferView" : 1,
            "componentType" : 5126,
            "count" : 1112,
            "type" : "VEC3"
        },
        {
            "bufferView" : 2,
            "componentType" : 5126,
            "count" : 1112,
            "type" : "VEC2"
        },
        {
            "bufferView" : 3,
            "componentType" : 5123,
            "count" : 1716,
            "type" : "SCALAR"
        },
        {
            "bufferView" : 4,
            "componentType" : 5126,
            "count" : 384,
            "max" : [
                0.04960832744836807,
                0.034877873957157135,
                0.019695350900292397
            ],
            "min" : [
                -0.04953217878937721,
                0.006737748626619577,
                -0.01969308778643608
            ],
            "type" : "VEC3"
        },
        {
            "bufferView" : 5,
            "componentType" : 5126,
            "count" : 384,
            "type" : "VEC3"
        },
        {
            "bufferView" : 6,
            "componentType" : 5126,
            "count" : 384,
            "type" : "VEC2"
        },
        {
            "bufferView" : 7,
            "componentType" : 5123,
            "count" : 576,
            "type" : "SCALAR"
        },
        {
            "bufferView" : 8,
            "componentType" : 5126,
            "count" : 64,
            "max" : [
                0.10487189888954163,
                0.00863112136721611,
                0.03206179291009903
            ],
            "min" : [
                -0.10487189143896103,
                -0.00863112136721611,
                -0.03206179291009903
            ],
            "type" : "VEC3"
        },
        {
            "bufferView" : 9,
            "componentType" : 5126,
            "count" : 64,
            "type" : "VEC3"
        },
        {
            "bufferView" : 10,
            "componentType" : 5126,
            "count" : 64,
            "type" : "VEC2"
        },
        {
            "bufferView" : 11,
            "componentType" : 5123,
            "count" : 84,
            "type" : "SCALAR"
        },
        {
            "bufferView" : 12,
            "componentType" : 5126,
            "count" : 32,
            "max" : [
                0.10487189888954163,
                0.007453266531229019,
                0.03206179291009903
            ],
            "min" : [
                -0.10487189143896103,
                -0.0074533019214868546,
                -0.03206179291009903
            ],
            "type" : "VEC3"
        },
        {
            "bufferView" : 13,
            "componentType" : 5126,
            "count" : 32,
            "type" : "VEC3"
        },
        {
            "bufferView" : 14,
            "componentType" : 5126,
            "count" : 32,
            "type" : "VEC2"
        },
        {
            "bufferView" : 15,
            "componentType" : 5123,
            "count" : 48,
            "type" : "SCALAR"
        },
        {
            "bufferView" : 16,
            "componentType" : 5126,
            "count" : 320,
            "max" : [
                0.10575899481773376,
                0.004178457427769899,
                0.032971132546663284
            ],
            "min" : [
                -0.10575912892818451,
                -0.004178457427769899,
                -0.032971128821372986
            ],
            "type" : "VEC3"
        },
        {
            "bufferView" : 17,
            "componentType" : 5126,
            "count" : 320,
            "type" : "VEC3"
        },
        {
            "bufferView" : 18,
            "componentType" : 5126,
            "count" : 320,
            "type" : "VEC2"
        },
        {
            "bufferView" : 19,
            "componentType" : 5123,
            "count" : 480,
            "type" : "SCALAR"
        },
        {
            "bufferView" : 20,
            "componentType" : 5126,
            "count" : 320,
            "max" : [
                0.10604484379291534,
                0.004178457427769899,
                0.03325699642300606
            ],
            "min" : [
                -0.10604499280452728,
                -0.004178457427769899,
                -0.03325699269771576
            ],
            "type" : "VEC3"
        },
        {
            "bufferView" : 21,
            "componentType" : 5126,
            "count" : 320,
            "type" : "VEC3"
        },
        {
            "bufferView" : 22,
            "componentType" : 5126,
            "count" : 320,
            "type" : "VEC2"
        },
        {
            "bufferView" : 23,
            "componentType" : 5123,
            "count" : 432,
            "type" : "SCALAR"
        },
        {
            "bufferView" : 24,
            "componentType" : 5126,
            "count" : 192,
            "max" : [
                0.044975753873586655,
                0.04450218379497528,
                0.016762329265475273
            ],
            "min" : [
                -0.008152329362928867,
                0.010977798141539097,
                -0.01676204428076744
            ],
            "type" : "VEC3"
        },
        {
            "bufferView" : 25,
            "componentType" : 5126,
            "count" : 192,
            "type" : "VEC3"
        },
        {
            "bufferView" : 26,
            "componentType" : 5126,
            "count" : 192,
            "type" : "VEC2"
        },
        {
            "bufferView" : 27,
            "componentType" : 5123,
            "count" : 288,
            "type" : "SCALAR"
        },
        {
            "bufferView" : 28,
            "componentType" : 5126,
            "count" : 180,
            "max" : [
                0.04591497406363487,
                0.04347498342394829,
                0.01573513075709343
            ],
            "min" : [
                0.04497574642300606,
                0.012004997581243515,
                -0.015734845772385597
            ],
            "type" : "VEC3"
        },
        {
            "bufferView" : 29,
            "componentType" : 5126,
            "count" : 180,
            "type" : "VEC3"
        },
        {
            "bufferView" : 30,
            "componentType" : 5126,
            "count" : 180,
            "type" : "VEC2"
        },
        {
            "bufferView" : 31,
            "componentType" : 5123,
            "count" : 252,
            "type" : "SCALAR"
        },
        {
            "bufferView" : 32,
            "componentType" : 5126,
            "count" : 192,
            "max" : [
                -0.008152324706315994,
                0.04450218379497528,
                0.016762329265475273
            ],
            "min" : [
                -0.0419265441596508,
                0.010977799072861671,
                -0.01676204614341259
            ],
            "type" : "VEC3"
        },
        {
            "bufferView" : 33,
            "componentType" : 5126,
            "count" : 192,
            "type" : "VEC3"
        },
        {
            "bufferView" : 34,
            "componentType" : 5126,
            "count" : 192,
            "type" : "VEC2"
        },
        {
            "bufferView" : 35,
            "componentType" : 5123,
            "count" : 288,
            "type" : "SCALAR"
        },
        {
            "bufferView" : 36,
            "componentType" : 5126,
            "count" : 96,
            "max" : [
                -0.041926536709070206,
                0.04346220940351486,
                0.015722353011369705
            ],
            "min" : [
                -0.04275060072541237,
                0.01201777532696724,
                -0.015722069889307022
            ],
            "type" : "VEC3"
        },
        {
            "bufferView" : 37,
            "componentType" : 5126,
            "count" : 96,
            "type" : "VEC3"
        },
        {
            "bufferView" : 38,
            "componentType" : 5126,
            "count" : 96,
            "type" : "VEC2"
        },
        {
            "bufferView" : 39,
            "componentType" : 5123,
            "count" : 144,
            "type" : "SCALAR"
        }
    ],
    "bufferViews" : [
        {
            "buffer" : 0,
            "byteLength" : 13344,
            "byteOffset" : 0
        },
        {
            "buffer" : 0,
            "byteLength" : 13344,
            "byteOffset" : 13344
        },
        {
            "buffer" : 0,
            "byteLength" : 8896,
            "byteOffset" : 26688
        },
        {
            "buffer" : 0,
            "byteLength" : 3432,
            "byteOffset" : 35584
        },
        {
            "buffer" : 0,
            "byteLength" : 4608,
            "byteOffset" : 39016
        },
        {
            "buffer" : 0,
            "byteLength" : 4608,
            "byteOffset" : 43624
        },
        {
            "buffer" : 0,
            "byteLength" : 3072,
            "byteOffset" : 48232
        },
        {
            "buffer" : 0,
            "byteLength" : 1152,
            "byteOffset" : 51304
        },
        {
            "buffer" : 0,
            "byteLength" : 768,
            "byteOffset" : 52456
        },
        {
            "buffer" : 0,
            "byteLength" : 768,
            "byteOffset" : 53224
        },
        {
            "buffer" : 0,
            "byteLength" : 512,
            "byteOffset" : 53992
        },
        {
            "buffer" : 0,
            "byteLength" : 168,
            "byteOffset" : 54504
        },
        {
            "buffer" : 0,
            "byteLength" : 384,
            "byteOffset" : 54672
        },
        {
            "buffer" : 0,
            "byteLength" : 384,
            "byteOffset" : 55056
        },
        {
            "buffer" : 0,
            "byteLength" : 256,
            "byteOffset" : 55440
        },
        {
            "buffer" : 0,
            "byteLength" : 96,
            "byteOffset" : 55696
        },
        {
            "buffer" : 0,
            "byteLength" : 3840,
            "byteOffset" : 55792
        },
        {
            "buffer" : 0,
            "byteLength" : 3840,
            "byteOffset" : 59632
        },
        {
            "buffer" : 0,
            "byteLength" : 2560,
            "byteOffset" : 63472
        },
        {
            "buffer" : 0,
            "byteLength" : 960,
            "byteOffset" : 66032
        },
        {
            "buffer" : 0,
            "byteLength" : 3840,
            "byteOffset" : 66992
        },
        {
            "buffer" : 0,
            "byteLength" : 3840,
            "byteOffset" : 70832
        },
        {
            "buffer" : 0,
            "byteLength" : 2560,
            "byteOffset" : 74672
        },
        {
            "buffer" : 0,
            "byteLength" : 864,
            "byteOffset" : 77232
        },
        {
            "buffer" : 0,
            "byteLength" : 2304,
            "byteOffset" : 78096
        },
        {
            "buffer" : 0,
            "byteLength" : 2304,
            "byteOffset" : 80400
        },
        {
            "buffer" : 0,
            "byteLength" : 1536,
            "byteOffset" : 82704
        },
        {
            "buffer" : 0,
            "byteLength" : 576,
            "byteOffset" : 84240
        },
        {
            "buffer" : 0,
            "byteLength" : 2160,
            "byteOffset" : 84816
        },
        {
            "buffer" : 0,
            "byteLength" : 2160,
            "byteOffset" : 86976
        },
        {
            "buffer" : 0,
            "byteLength" : 1440,
            "byteOffset" : 89136
        },
        {
            "buffer" : 0,
            "byteLength" : 504,
            "byteOffset" : 90576
        },
        {
            "buffer" : 0,
            "byteLength" : 2304,
            "byteOffset" : 91080
        },
        {
            "buffer" : 0,
            "byteLength" : 2304,
            "byteOffset" : 93384
        },
        {
            "buffer" : 0,
            "byteLength" : 1536,
            "byteOffset" : 95688
        },
        {
            "buffer" : 0,
            "byteLength" : 576,
            "byteOffset" : 97224
        },
        {
            "buffer" : 0,
            "byteLength" : 1152,
            "byteOffset" : 97800
        },
        {
            "buffer" : 0,
            "byteLength" : 1152,
            "byteOffset" : 98952
        },
        {
            "buffer" : 0,
            "byteLength" : 768,
            "byteOffset" : 100104
        },
        {
            "buffer" : 0,
            "byteLength" : 288,
            "byteOffset" : 100872
        }
    ],
    "buffers" : [
        {
            "byteLength" : 101160,
            "uri" : "data:application/octet-stream;base64,"
        }
    ]
}
