{
    "asset" : {
        "generator" : "Khronos glTF Blender I/O v1.1.45",
        "version" : "2.0"
    },
    "scene" : 0,
    "scenes" : [
        {
            "name" : "Scene",
            "nodes" : [
                0
            ]
        }
    ],
    "nodes" : [
        {
            "mesh" : 0,
            "name" : "blocks_platform"
        }
    ],
    "materials" : [
        {
            "doubleSided" : true,
            "emissiveFactor" : [
                0,
                0,
                0
            ],
            "name" : "Material.001",
            "pbrMetallicRoughness" : {
                "baseColorFactor" : [
                    0.800000011920929,
                    0.800000011920929,
                    0.800000011920929,
                    1
                ],
                "metallicFactor" : 0,
                "roughnessFactor" : 0.5
            }
        },
        {
            "doubleSided" : true,
            "emissiveFactor" : [
                0,
                0,
                0
            ],
            "name" : "Material.002",
            "pbrMetallicRoughness" : {
                "baseColorFactor" : [
                    0.800000011920929,
                    0.800000011920929,
                    0.800000011920929,
                    1
                ],
                "metallicFactor" : 0,
                "roughnessFactor" : 0.5
            }
        }
    ],
    "meshes" : [
        {
            "name" : "Cylinder",
            "primitives" : [
                {
                    "attributes" : {
                        "POSITION" : 0,
                        "NORMAL" : 1,
                        "TEXCOORD_0" : 2
                    },
                    "indices" : 3,
                    "material" : 0
                },
                {
                    "attributes" : {
                        "POSITION" : 4,
                        "NORMAL" : 5,
                        "TEXCOORD_0" : 6
                    },
                    "indices" : 7,
                    "material" : 1
                }
            ]
        }
    ],
    "accessors" : [
        {
            "bufferView" : 0,
            "componentType" : 5126,
            "count" : 314,
            "max" : [
                2.6813411712646484,
                0.05362682417035103,
                2.6813411712646484
            ],
            "min" : [
                -2.6813411712646484,
                0.05000000074505806,
                -2.6813411712646484
            ],
            "type" : "VEC3"
        },
        {
            "bufferView" : 1,
            "componentType" : 5126,
            "count" : 314,
            "type" : "VEC3"
        },
        {
            "bufferView" : 2,
            "componentType" : 5126,
            "count" : 314,
            "type" : "VEC2"
        },
        {
            "bufferView" : 3,
            "componentType" : 5123,
            "count" : 576,
            "type" : "SCALAR"
        },
        {
            "bufferView" : 4,
            "componentType" : 5126,
            "count" : 486,
            "max" : [
                2.6813411712646484,
                0.05362682417035103,
                2.6813411712646484
            ],
            "min" : [
                -2.6813411712646484,
                -0.05362682417035103,
                -2.6813411712646484
            ],
            "type" : "VEC3"
        },
        {
            "bufferView" : 5,
            "componentType" : 5126,
            "count" : 486,
            "type" : "VEC3"
        },
        {
            "bufferView" : 6,
            "componentType" : 5126,
            "count" : 486,
            "type" : "VEC2"
        },
        {
            "bufferView" : 7,
            "componentType" : 5123,
            "count" : 948,
            "type" : "SCALAR"
        }
    ],
    "bufferViews" : [
        {
            "buffer" : 0,
            "byteLength" : 3768,
            "byteOffset" : 0
        },
        {
            "buffer" : 0,
            "byteLength" : 3768,
            "byteOffset" : 3768
        },
        {
            "buffer" : 0,
            "byteLength" : 2512,
            "byteOffset" : 7536
        },
        {
            "buffer" : 0,
            "byteLength" : 1152,
            "byteOffset" : 10048
        },
        {
            "buffer" : 0,
            "byteLength" : 5832,
            "byteOffset" : 11200
        },
        {
            "buffer" : 0,
            "byteLength" : 5832,
            "byteOffset" : 17032
        },
        {
            "buffer" : 0,
            "byteLength" : 3888,
            "byteOffset" : 22864
        },
        {
            "buffer" : 0,
            "byteLength" : 1896,
            "byteOffset" : 26752
        }
    ],
    "buffers" : [
        {
            "byteLength" : 28648,
            "uri" : "data:application/octet-stream;base64,"
        }
    ]
}
