{
    "asset" : {
        "generator" : "Khronos glTF Blender I/O v0.9.36",
        "version" : "2.0"
    },
    "scene" : 0,
    "scenes" : [
        {
            "name" : "Scene",
            "nodes" : [
                0
            ]
        }
    ],
    "nodes" : [
        {
            "mesh" : 0,
            "name" : "switch_base",
            "scale" : [
                0.10084199905395508,
                0.008299457840621471,
                0.028346717357635498
            ],
            "translation" : [
                -0.03402266651391983,
                1.0313929319381714,
                -1.2011746168136597
            ]
        }
    ],
    "materials" : [
        {
            "doubleSided" : true,
            "name" : "Chair.002",
            "pbrMetallicRoughness" : {}
        },
        {
            "doubleSided" : true,
            "name" : "Material.006",
            "pbrMetallicRoughness" : {}
        },
        {
            "doubleSided" : true,
            "name" : "Base",
            "pbrMetallicRoughness" : {}
        }
    ],
    "meshes" : [
        {
            "name" : "Cube.008",
            "primitives" : [
                {
                    "attributes" : {
                        "POSITION" : 0,
                        "NORMAL" : 1,
                        "TEXCOORD_0" : 2
                    },
                    "indices" : 3,
                    "material" : 0
                },
                {
                    "attributes" : {
                        "POSITION" : 4,
                        "NORMAL" : 5,
                        "TEXCOORD_0" : 6
                    },
                    "indices" : 7,
                    "material" : 1
                },
                {
                    "attributes" : {
                        "POSITION" : 8,
                        "NORMAL" : 9,
                        "TEXCOORD_0" : 10
                    },
                    "indices" : 11,
                    "material" : 2
                }
            ]
        }
    ],
    "accessors" : [
        {
            "bufferView" : 0,
            "componentType" : 5126,
            "count" : 24,
            "max" : [
                1,
                0.9999999403953552,
                1.0875953435897827
            ],
            "min" : [
                -1,
                -0.9999999403953552,
                -1.0875953435897827
            ],
            "type" : "VEC3"
        },
        {
            "bufferView" : 1,
            "componentType" : 5126,
            "count" : 24,
            "type" : "VEC3"
        },
        {
            "bufferView" : 2,
            "componentType" : 5126,
            "count" : 24,
            "type" : "VEC2"
        },
        {
            "bufferView" : 3,
            "componentType" : 5123,
            "count" : 36,
            "type" : "SCALAR"
        },
        {
            "bufferView" : 4,
            "componentType" : 5126,
            "count" : 322,
            "max" : [
                0.7672191858291626,
                5.345859527587891,
                0.22521820664405823
            ],
            "min" : [
                -0.7672260999679565,
                0.5885106325149536,
                -0.22521057724952698
            ],
            "type" : "VEC3"
        },
        {
            "bufferView" : 5,
            "componentType" : 5126,
            "count" : 322,
            "type" : "VEC3"
        },
        {
            "bufferView" : 6,
            "componentType" : 5126,
            "count" : 322,
            "type" : "VEC2"
        },
        {
            "bufferView" : 7,
            "componentType" : 5123,
            "count" : 594,
            "type" : "SCALAR"
        },
        {
            "bufferView" : 8,
            "componentType" : 5126,
            "count" : 216,
            "max" : [
                0.7875778675079346,
                5.491320610046387,
                0.2729108929634094
            ],
            "min" : [
                -0.7875847816467285,
                0.8447216749191284,
                -0.2729032635688782
            ],
            "type" : "VEC3"
        },
        {
            "bufferView" : 9,
            "componentType" : 5126,
            "count" : 216,
            "type" : "VEC3"
        },
        {
            "bufferView" : 10,
            "componentType" : 5126,
            "count" : 216,
            "type" : "VEC2"
        },
        {
            "bufferView" : 11,
            "componentType" : 5123,
            "count" : 426,
            "type" : "SCALAR"
        }
    ],
    "bufferViews" : [
        {
            "buffer" : 0,
            "byteLength" : 288,
            "byteOffset" : 0
        },
        {
            "buffer" : 0,
            "byteLength" : 288,
            "byteOffset" : 288
        },
        {
            "buffer" : 0,
            "byteLength" : 192,
            "byteOffset" : 576
        },
        {
            "buffer" : 0,
            "byteLength" : 72,
            "byteOffset" : 768
        },
        {
            "buffer" : 0,
            "byteLength" : 3864,
            "byteOffset" : 840
        },
        {
            "buffer" : 0,
            "byteLength" : 3864,
            "byteOffset" : 4704
        },
        {
            "buffer" : 0,
            "byteLength" : 2576,
            "byteOffset" : 8568
        },
        {
            "buffer" : 0,
            "byteLength" : 1188,
            "byteOffset" : 11144
        },
        {
            "buffer" : 0,
            "byteLength" : 2592,
            "byteOffset" : 12332
        },
        {
            "buffer" : 0,
            "byteLength" : 2592,
            "byteOffset" : 14924
        },
        {
            "buffer" : 0,
            "byteLength" : 1728,
            "byteOffset" : 17516
        },
        {
            "buffer" : 0,
            "byteLength" : 852,
            "byteOffset" : 19244
        }
    ],
    "buffers" : [
        {
            "byteLength" : 20096,
            "uri" : "data:application/octet-stream;base64,"
        }
    ]
}
