{
    "asset" : {
        "generator" : "Khronos glTF Blender I/O v0.9.36",
        "version" : "2.0"
    },
    "scene" : 0,
    "scenes" : [
        {
            "name" : "Scene",
            "nodes" : [
                0
            ]
        }
    ],
    "nodes" : [
        {
            "mesh" : 0,
            "name" : "battery_base",
            "scale" : [
                0.10084199905395508,
                0.008299457840621471,
                0.028346717357635498
            ],
            "translation" : [
                0.22318296134471893,
                1.0313929319381714,
                -1.2011746168136597
            ]
        }
    ],
    "materials" : [
        {
            "doubleSided" : true,
            "name" : "Chair.002",
            "pbrMetallicRoughness" : {}
        },
        {
            "doubleSided" : true,
            "name" : "Base",
            "pbrMetallicRoughness" : {}
        },
        {
            "doubleSided" : true,
            "name" : "Material.006",
            "pbrMetallicRoughness" : {}
        },
        {
            "doubleSided" : true,
            "name" : "Base.002",
            "pbrMetallicRoughness" : {}
        }
    ],
    "meshes" : [
        {
            "name" : "Cube.012",
            "primitives" : [
                {
                    "attributes" : {
                        "POSITION" : 0,
                        "NORMAL" : 1,
                        "TEXCOORD_0" : 2
                    },
                    "indices" : 3,
                    "material" : 0
                },
                {
                    "attributes" : {
                        "POSITION" : 4,
                        "NORMAL" : 5,
                        "TEXCOORD_0" : 6
                    },
                    "indices" : 7,
                    "material" : 1
                },
                {
                    "attributes" : {
                        "POSITION" : 8,
                        "NORMAL" : 9,
                        "TEXCOORD_0" : 10
                    },
                    "indices" : 11,
                    "material" : 2
                },
                {
                    "attributes" : {
                        "POSITION" : 12,
                        "NORMAL" : 13,
                        "TEXCOORD_0" : 14
                    },
                    "indices" : 15,
                    "material" : 3
                }
            ]
        }
    ],
    "accessors" : [
        {
            "bufferView" : 0,
            "componentType" : 5126,
            "count" : 24,
            "max" : [
                1,
                0.9999999403953552,
                1.0875953435897827
            ],
            "min" : [
                -1,
                -0.9999999403953552,
                -1.0875953435897827
            ],
            "type" : "VEC3"
        },
        {
            "bufferView" : 1,
            "componentType" : 5126,
            "count" : 24,
            "type" : "VEC3"
        },
        {
            "bufferView" : 2,
            "componentType" : 5126,
            "count" : 24,
            "type" : "VEC2"
        },
        {
            "bufferView" : 3,
            "componentType" : 5123,
            "count" : 36,
            "type" : "SCALAR"
        },
        {
            "bufferView" : 4,
            "componentType" : 5126,
            "count" : 256,
            "max" : [
                0.7876027822494507,
                4.711321830749512,
                0.5313921570777893
            ],
            "min" : [
                -0.7875598669052124,
                0.8447216749191284,
                -0.5313845276832581
            ],
            "type" : "VEC3"
        },
        {
            "bufferView" : 5,
            "componentType" : 5126,
            "count" : 256,
            "type" : "VEC3"
        },
        {
            "bufferView" : 6,
            "componentType" : 5126,
            "count" : 256,
            "type" : "VEC2"
        },
        {
            "bufferView" : 7,
            "componentType" : 5123,
            "count" : 492,
            "type" : "SCALAR"
        },
        {
            "bufferView" : 8,
            "componentType" : 5126,
            "count" : 322,
            "max" : [
                0.7672441005706787,
                4.11514139175415,
                0.5880813002586365
            ],
            "min" : [
                -0.7672011852264404,
                1.0172538757324219,
                -0.58807373046875
            ],
            "type" : "VEC3"
        },
        {
            "bufferView" : 9,
            "componentType" : 5126,
            "count" : 322,
            "type" : "VEC3"
        },
        {
            "bufferView" : 10,
            "componentType" : 5126,
            "count" : 322,
            "type" : "VEC2"
        },
        {
            "bufferView" : 11,
            "componentType" : 5123,
            "count" : 534,
            "type" : "SCALAR"
        },
        {
            "bufferView" : 12,
            "componentType" : 5126,
            "count" : 96,
            "max" : [
                -0.12246892601251602,
                4.711321830749512,
                0.5313921570777893
            ],
            "min" : [
                -0.3885160982608795,
                1.0814182758331299,
                -0.5313845276832581
            ],
            "type" : "VEC3"
        },
        {
            "bufferView" : 13,
            "componentType" : 5126,
            "count" : 96,
            "type" : "VEC3"
        },
        {
            "bufferView" : 14,
            "componentType" : 5126,
            "count" : 96,
            "type" : "VEC2"
        },
        {
            "bufferView" : 15,
            "componentType" : 5123,
            "count" : 144,
            "type" : "SCALAR"
        }
    ],
    "bufferViews" : [
        {
            "buffer" : 0,
            "byteLength" : 288,
            "byteOffset" : 0
        },
        {
            "buffer" : 0,
            "byteLength" : 288,
            "byteOffset" : 288
        },
        {
            "buffer" : 0,
            "byteLength" : 192,
            "byteOffset" : 576
        },
        {
            "buffer" : 0,
            "byteLength" : 72,
            "byteOffset" : 768
        },
        {
            "buffer" : 0,
            "byteLength" : 3072,
            "byteOffset" : 840
        },
        {
            "buffer" : 0,
            "byteLength" : 3072,
            "byteOffset" : 3912
        },
        {
            "buffer" : 0,
            "byteLength" : 2048,
            "byteOffset" : 6984
        },
        {
            "buffer" : 0,
            "byteLength" : 984,
            "byteOffset" : 9032
        },
        {
            "buffer" : 0,
            "byteLength" : 3864,
            "byteOffset" : 10016
        },
        {
            "buffer" : 0,
            "byteLength" : 3864,
            "byteOffset" : 13880
        },
        {
            "buffer" : 0,
            "byteLength" : 2576,
            "byteOffset" : 17744
        },
        {
            "buffer" : 0,
            "byteLength" : 1068,
            "byteOffset" : 20320
        },
        {
            "buffer" : 0,
            "byteLength" : 1152,
            "byteOffset" : 21388
        },
        {
            "buffer" : 0,
            "byteLength" : 1152,
            "byteOffset" : 22540
        },
        {
            "buffer" : 0,
            "byteLength" : 768,
            "byteOffset" : 23692
        },
        {
            "buffer" : 0,
            "byteLength" : 288,
            "byteOffset" : 24460
        }
    ],
    "buffers" : [
        {
            "byteLength" : 24748,
            "uri" : "data:application/octet-stream;base64,"
        }
    ]
}
