{
    "asset" : {
        "generator" : "Khronos glTF Blender I/O v1.1.45",
        "version" : "2.0"
    },
    "scene" : 0,
    "scenes" : [
        {
            "name" : "Scene",
            "nodes" : [
                0
            ]
        }
    ],
    "nodes" : [
        {
            "mesh" : 0,
            "name" : "block_delete"
        }
    ],
    "materials" : [
        {
            "doubleSided" : true,
            "emissiveFactor" : [
                0,
                0,
                0
            ],
            "name" : "x_shadow",
            "pbrMetallicRoughness" : {
                "baseColorFactor" : [
                    0.800000011920929,
                    0.800000011920929,
                    0.800000011920929,
                    1
                ],
                "metallicFactor" : 0,
                "roughnessFactor" : 0.4000000059604645
            }
        },
        {
            "doubleSided" : true,
            "emissiveFactor" : [
                0,
                0,
                0
            ],
            "name" : "cube_shadow.002",
            "pbrMetallicRoughness" : {
                "baseColorFactor" : [
                    0.800000011920929,
                    0.800000011920929,
                    0.800000011920929,
                    1
                ],
                "metallicFactor" : 0,
                "roughnessFactor" : 0.5
            }
        },
        {
            "doubleSided" : true,
            "emissiveFactor" : [
                0,
                0,
                0
            ],
            "name" : "x.001",
            "pbrMetallicRoughness" : {
                "baseColorFactor" : [
                    0.800000011920929,
                    0.800000011920929,
                    0.800000011920929,
                    1
                ],
                "metallicFactor" : 0,
                "roughnessFactor" : 0.5
            }
        },
        {
            "doubleSided" : true,
            "emissiveFactor" : [
                0,
                0,
                0
            ],
            "name" : "cube",
            "pbrMetallicRoughness" : {
                "baseColorFactor" : [
                    0.800000011920929,
                    0.800000011920929,
                    0.800000011920929,
                    1
                ],
                "metallicFactor" : 0,
                "roughnessFactor" : 0.5
            }
        }
    ],
    "meshes" : [
        {
            "name" : "Cube.005",
            "primitives" : [
                {
                    "attributes" : {
                        "POSITION" : 0,
                        "NORMAL" : 1,
                        "TEXCOORD_0" : 2
                    },
                    "indices" : 3,
                    "material" : 0
                },
                {
                    "attributes" : {
                        "POSITION" : 4,
                        "NORMAL" : 5,
                        "TEXCOORD_0" : 6
                    },
                    "indices" : 7,
                    "material" : 1
                },
                {
                    "attributes" : {
                        "POSITION" : 8,
                        "NORMAL" : 9,
                        "TEXCOORD_0" : 10
                    },
                    "indices" : 11,
                    "material" : 2
                },
                {
                    "attributes" : {
                        "POSITION" : 12,
                        "NORMAL" : 13,
                        "TEXCOORD_0" : 14
                    },
                    "indices" : 15,
                    "material" : 3
                }
            ]
        }
    ],
    "accessors" : [
        {
            "bufferView" : 0,
            "componentType" : 5126,
            "count" : 906,
            "max" : [
                0.020068425685167313,
                0.014378952793776989,
                0.020068427547812462
            ],
            "min" : [
                -0.02006842941045761,
                -0.014378952793776989,
                -0.020068427547812462
            ],
            "type" : "VEC3"
        },
        {
            "bufferView" : 1,
            "componentType" : 5126,
            "count" : 906,
            "type" : "VEC3"
        },
        {
            "bufferView" : 2,
            "componentType" : 5126,
            "count" : 906,
            "type" : "VEC2"
        },
        {
            "bufferView" : 3,
            "componentType" : 5123,
            "count" : 1200,
            "type" : "SCALAR"
        },
        {
            "bufferView" : 4,
            "componentType" : 5126,
            "count" : 120,
            "max" : [
                0.020068425685167313,
                0.020068427547812462,
                0.020068427547812462
            ],
            "min" : [
                -0.02006842941045761,
                -0.020068427547812462,
                -0.020068427547812462
            ],
            "type" : "VEC3"
        },
        {
            "bufferView" : 5,
            "componentType" : 5126,
            "count" : 120,
            "type" : "VEC3"
        },
        {
            "bufferView" : 6,
            "componentType" : 5126,
            "count" : 120,
            "type" : "VEC2"
        },
        {
            "bufferView" : 7,
            "componentType" : 5123,
            "count" : 144,
            "type" : "SCALAR"
        },
        {
            "bufferView" : 8,
            "componentType" : 5126,
            "count" : 64,
            "max" : [
                0.018068425357341766,
                0.012378952465951443,
                0.018068427219986916
            ],
            "min" : [
                -0.018068429082632065,
                -0.012378952465951443,
                -0.018068427219986916
            ],
            "type" : "VEC3"
        },
        {
            "bufferView" : 9,
            "componentType" : 5126,
            "count" : 64,
            "type" : "VEC3"
        },
        {
            "bufferView" : 10,
            "componentType" : 5126,
            "count" : 64,
            "type" : "VEC2"
        },
        {
            "bufferView" : 11,
            "componentType" : 5123,
            "count" : 168,
            "type" : "SCALAR"
        },
        {
            "bufferView" : 12,
            "componentType" : 5126,
            "count" : 164,
            "max" : [
                0.020068425685167313,
                0.020068427547812462,
                0.020068427547812462
            ],
            "min" : [
                -0.02006842941045761,
                -0.020068427547812462,
                -0.020068427547812462
            ],
            "type" : "VEC3"
        },
        {
            "bufferView" : 13,
            "componentType" : 5126,
            "count" : 164,
            "type" : "VEC3"
        },
        {
            "bufferView" : 14,
            "componentType" : 5126,
            "count" : 164,
            "type" : "VEC2"
        },
        {
            "bufferView" : 15,
            "componentType" : 5123,
            "count" : 348,
            "type" : "SCALAR"
        }
    ],
    "bufferViews" : [
        {
            "buffer" : 0,
            "byteLength" : 10872,
            "byteOffset" : 0
        },
        {
            "buffer" : 0,
            "byteLength" : 10872,
            "byteOffset" : 10872
        },
        {
            "buffer" : 0,
            "byteLength" : 7248,
            "byteOffset" : 21744
        },
        {
            "buffer" : 0,
            "byteLength" : 2400,
            "byteOffset" : 28992
        },
        {
            "buffer" : 0,
            "byteLength" : 1440,
            "byteOffset" : 31392
        },
        {
            "buffer" : 0,
            "byteLength" : 1440,
            "byteOffset" : 32832
        },
        {
            "buffer" : 0,
            "byteLength" : 960,
            "byteOffset" : 34272
        },
        {
            "buffer" : 0,
            "byteLength" : 288,
            "byteOffset" : 35232
        },
        {
            "buffer" : 0,
            "byteLength" : 768,
            "byteOffset" : 35520
        },
        {
            "buffer" : 0,
            "byteLength" : 768,
            "byteOffset" : 36288
        },
        {
            "buffer" : 0,
            "byteLength" : 512,
            "byteOffset" : 37056
        },
        {
            "buffer" : 0,
            "byteLength" : 336,
            "byteOffset" : 37568
        },
        {
            "buffer" : 0,
            "byteLength" : 1968,
            "byteOffset" : 37904
        },
        {
            "buffer" : 0,
            "byteLength" : 1968,
            "byteOffset" : 39872
        },
        {
            "buffer" : 0,
            "byteLength" : 1312,
            "byteOffset" : 41840
        },
        {
            "buffer" : 0,
            "byteLength" : 696,
            "byteOffset" : 43152
        }
    ],
    "buffers" : [
        {
            "byteLength" : 43848,
            "uri" : "data:application/octet-stream;base64,"
        }
    ]
}
