{
    "asset" : {
        "generator" : "Khronos glTF Blender I/O v0.9.36",
        "version" : "2.0"
    },
    "scene" : 0,
    "scenes" : [
        {
            "name" : "Scene",
            "nodes" : [
                0,
                1
            ]
        }
    ],
    "nodes" : [
        {
            "mesh" : 0,
            "name" : "switch",
            "translation" : [
                -0.05838634818792343,
                1.0689584016799927,
                -1.2011746168136597
            ]
        },
        {
            "mesh" : 1,
            "name" : "switch_base",
            "translation" : [
                -0.03402267396450043,
                1.0325846672058105,
                -1.2011746168136597
            ]
        }
    ],
    "materials" : [
        {
            "doubleSided" : true,
            "name" : "Material.006",
            "pbrMetallicRoughness" : {}
        },
        {
            "doubleSided" : true,
            "name" : "Base",
            "pbrMetallicRoughness" : {}
        },
        {
            "doubleSided" : true,
            "name" : "Chair.002",
            "pbrMetallicRoughness" : {}
        }
    ],
    "meshes" : [
        {
            "name" : "Cube.011",
            "primitives" : [
                {
                    "attributes" : {
                        "POSITION" : 0,
                        "NORMAL" : 1,
                        "TEXCOORD_0" : 2
                    },
                    "indices" : 3,
                    "material" : 0
                },
                {
                    "attributes" : {
                        "POSITION" : 4,
                        "NORMAL" : 5,
                        "TEXCOORD_0" : 6
                    },
                    "indices" : 7,
                    "material" : 1
                }
            ]
        },
        {
            "name" : "Cube.008",
            "primitives" : [
                {
                    "attributes" : {
                        "POSITION" : 8,
                        "NORMAL" : 9,
                        "TEXCOORD_0" : 10
                    },
                    "indices" : 11,
                    "material" : 2
                },
                {
                    "attributes" : {
                        "POSITION" : 12,
                        "NORMAL" : 13,
                        "TEXCOORD_0" : 14
                    },
                    "indices" : 15,
                    "material" : 0
                },
                {
                    "attributes" : {
                        "POSITION" : 16,
                        "NORMAL" : 17,
                        "TEXCOORD_0" : 18
                    },
                    "indices" : 19,
                    "material" : 1
                }
            ]
        }
    ],
    "accessors" : [
        {
            "bufferView" : 0,
            "componentType" : 5126,
            "count" : 20,
            "max" : [
                0.06027120351791382,
                0.005914952605962753,
                0.0010346368653699756
            ],
            "min" : [
                -0.00453662034124136,
                -0.005914952605962753,
                -0.0010346368653699756
            ],
            "type" : "VEC3"
        },
        {
            "bufferView" : 1,
            "componentType" : 5126,
            "count" : 20,
            "type" : "VEC3"
        },
        {
            "bufferView" : 2,
            "componentType" : 5126,
            "count" : 20,
            "type" : "VEC2"
        },
        {
            "bufferView" : 3,
            "componentType" : 5123,
            "count" : 30,
            "type" : "SCALAR"
        },
        {
            "bufferView" : 4,
            "componentType" : 5126,
            "count" : 52,
            "max" : [
                0.0755036398768425,
                0.008009538985788822,
                0.0030194404534995556
            ],
            "min" : [
                0.06027120351791382,
                -0.008009538985788822,
                -0.0030194404534995556
            ],
            "type" : "VEC3"
        },
        {
            "bufferView" : 5,
            "componentType" : 5126,
            "count" : 52,
            "type" : "VEC3"
        },
        {
            "bufferView" : 6,
            "componentType" : 5126,
            "count" : 52,
            "type" : "VEC2"
        },
        {
            "bufferView" : 7,
            "componentType" : 5123,
            "count" : 78,
            "type" : "SCALAR"
        },
        {
            "bufferView" : 8,
            "componentType" : 5126,
            "count" : 24,
            "max" : [
                0.10084200650453568,
                0.007107760291546583,
                0.03082975000143051
            ],
            "min" : [
                -0.10084199160337448,
                -0.009491153061389923,
                -0.030829764902591705
            ],
            "type" : "VEC3"
        },
        {
            "bufferView" : 9,
            "componentType" : 5126,
            "count" : 24,
            "type" : "VEC3"
        },
        {
            "bufferView" : 10,
            "componentType" : 5126,
            "count" : 24,
            "type" : "VEC2"
        },
        {
            "bufferView" : 11,
            "componentType" : 5123,
            "count" : 36,
            "type" : "SCALAR"
        },
        {
            "bufferView" : 12,
            "componentType" : 5126,
            "count" : 322,
            "max" : [
                0.07736792415380478,
                0.043176036328077316,
                0.006384189706295729
            ],
            "min" : [
                -0.0773686096072197,
                0.0036926227621734142,
                -0.006383987609297037
            ],
            "type" : "VEC3"
        },
        {
            "bufferView" : 13,
            "componentType" : 5126,
            "count" : 322,
            "type" : "VEC3"
        },
        {
            "bufferView" : 14,
            "componentType" : 5126,
            "count" : 322,
            "type" : "VEC2"
        },
        {
            "bufferView" : 15,
            "componentType" : 5123,
            "count" : 564,
            "type" : "SCALAR"
        },
        {
            "bufferView" : 16,
            "componentType" : 5126,
            "count" : 188,
            "max" : [
                0.07942093163728714,
                0.02417660877108574,
                0.007736120838671923
            ],
            "min" : [
                -0.07942161709070206,
                0.005819035228341818,
                -0.007735918741673231
            ],
            "type" : "VEC3"
        },
        {
            "bufferView" : 17,
            "componentType" : 5126,
            "count" : 188,
            "type" : "VEC3"
        },
        {
            "bufferView" : 18,
            "componentType" : 5126,
            "count" : 188,
            "type" : "VEC2"
        },
        {
            "bufferView" : 19,
            "componentType" : 5123,
            "count" : 348,
            "type" : "SCALAR"
        }
    ],
    "bufferViews" : [
        {
            "buffer" : 0,
            "byteLength" : 240,
            "byteOffset" : 0
        },
        {
            "buffer" : 0,
            "byteLength" : 240,
            "byteOffset" : 240
        },
        {
            "buffer" : 0,
            "byteLength" : 160,
            "byteOffset" : 480
        },
        {
            "buffer" : 0,
            "byteLength" : 60,
            "byteOffset" : 640
        },
        {
            "buffer" : 0,
            "byteLength" : 624,
            "byteOffset" : 700
        },
        {
            "buffer" : 0,
            "byteLength" : 624,
            "byteOffset" : 1324
        },
        {
            "buffer" : 0,
            "byteLength" : 416,
            "byteOffset" : 1948
        },
        {
            "buffer" : 0,
            "byteLength" : 156,
            "byteOffset" : 2364
        },
        {
            "buffer" : 0,
            "byteLength" : 288,
            "byteOffset" : 2520
        },
        {
            "buffer" : 0,
            "byteLength" : 288,
            "byteOffset" : 2808
        },
        {
            "buffer" : 0,
            "byteLength" : 192,
            "byteOffset" : 3096
        },
        {
            "buffer" : 0,
            "byteLength" : 72,
            "byteOffset" : 3288
        },
        {
            "buffer" : 0,
            "byteLength" : 3864,
            "byteOffset" : 3360
        },
        {
            "buffer" : 0,
            "byteLength" : 3864,
            "byteOffset" : 7224
        },
        {
            "buffer" : 0,
            "byteLength" : 2576,
            "byteOffset" : 11088
        },
        {
            "buffer" : 0,
            "byteLength" : 1128,
            "byteOffset" : 13664
        },
        {
            "buffer" : 0,
            "byteLength" : 2256,
            "byteOffset" : 14792
        },
        {
            "buffer" : 0,
            "byteLength" : 2256,
            "byteOffset" : 17048
        },
        {
            "buffer" : 0,
            "byteLength" : 1504,
            "byteOffset" : 19304
        },
        {
            "buffer" : 0,
            "byteLength" : 696,
            "byteOffset" : 20808
        }
    ],
    "buffers" : [
        {
            "byteLength" : 21504,
            "uri" : "data:application/octet-stream;base64,"
        }
    ]
}
