{
    "asset" : {
        "generator" : "Khronos glTF Blender I/O v1.1.45",
        "version" : "2.0"
    },
    "scene" : 0,
    "scenes" : [
        {
            "name" : "Scene",
            "nodes" : [
                0
            ]
        }
    ],
    "nodes" : [
        {
            "mesh" : 0,
            "name" : "blocks_platform_3"
        }
    ],
    "materials" : [
        {
            "doubleSided" : true,
            "emissiveFactor" : [
                0,
                0,
                0
            ],
            "name" : "bright",
            "pbrMetallicRoughness" : {
                "baseColorFactor" : [
                    0.8987838625907898,
                    0.992426872253418,
                    0.9314699769020081,
                    1
                ],
                "metallicFactor" : 0,
                "roughnessFactor" : 0.5
            }
        },
        {
            "doubleSided" : true,
            "emissiveFactor" : [
                0,
                0,
                0
            ],
            "name" : "dark",
            "pbrMetallicRoughness" : {
                "baseColorFactor" : [
                    0.002323098946362734,
                    0.0012389470357447863,
                    0.00677504250779748,
                    1
                ],
                "metallicFactor" : 0,
                "roughnessFactor" : 0.5
            }
        },
        {
            "doubleSided" : true,
            "emissiveFactor" : [
                0,
                0,
                0
            ],
            "name" : "dark_shadow",
            "pbrMetallicRoughness" : {
                "baseColorFactor" : [
                    0.800000011920929,
                    0.800000011920929,
                    0.800000011920929,
                    1
                ],
                "metallicFactor" : 0,
                "roughnessFactor" : 0.5
            }
        },
        {
            "doubleSided" : true,
            "emissiveFactor" : [
                0,
                0,
                0
            ],
            "name" : "bright_shadow",
            "pbrMetallicRoughness" : {
                "baseColorFactor" : [
                    0.800000011920929,
                    0.800000011920929,
                    0.800000011920929,
                    1
                ],
                "metallicFactor" : 0,
                "roughnessFactor" : 0.5
            }
        }
    ],
    "meshes" : [
        {
            "name" : "Cube.001",
            "primitives" : [
                {
                    "attributes" : {
                        "POSITION" : 0,
                        "NORMAL" : 1,
                        "TEXCOORD_0" : 2
                    },
                    "indices" : 3,
                    "material" : 0
                },
                {
                    "attributes" : {
                        "POSITION" : 4,
                        "NORMAL" : 5,
                        "TEXCOORD_0" : 6
                    },
                    "indices" : 7,
                    "material" : 1
                },
                {
                    "attributes" : {
                        "POSITION" : 8,
                        "NORMAL" : 9,
                        "TEXCOORD_0" : 10
                    },
                    "indices" : 11,
                    "material" : 2
                },
                {
                    "attributes" : {
                        "POSITION" : 12,
                        "NORMAL" : 13,
                        "TEXCOORD_0" : 14
                    },
                    "indices" : 15,
                    "material" : 3
                }
            ]
        }
    ],
    "accessors" : [
        {
            "bufferView" : 0,
            "componentType" : 5126,
            "count" : 606,
            "max" : [
                8.75,
                0.04999999701976776,
                9.375
            ],
            "min" : [
                -10,
                -0.05000007897615433,
                -10
            ],
            "type" : "VEC3"
        },
        {
            "bufferView" : 1,
            "componentType" : 5126,
            "count" : 606,
            "type" : "VEC3"
        },
        {
            "bufferView" : 2,
            "componentType" : 5126,
            "count" : 606,
            "type" : "VEC2"
        },
        {
            "bufferView" : 3,
            "componentType" : 5123,
            "count" : 1134,
            "type" : "SCALAR"
        },
        {
            "bufferView" : 4,
            "componentType" : 5126,
            "count" : 866,
            "max" : [
                10,
                0.04999999701976776,
                8.75
            ],
            "min" : [
                -9.375,
                -0.05000007897615433,
                -7.5
            ],
            "type" : "VEC3"
        },
        {
            "bufferView" : 5,
            "componentType" : 5126,
            "count" : 866,
            "type" : "VEC3"
        },
        {
            "bufferView" : 6,
            "componentType" : 5126,
            "count" : 866,
            "type" : "VEC2"
        },
        {
            "bufferView" : 7,
            "componentType" : 5123,
            "count" : 2226,
            "type" : "SCALAR"
        },
        {
            "bufferView" : 8,
            "componentType" : 5126,
            "count" : 676,
            "max" : [
                10,
                0.04999999701976776,
                8.75
            ],
            "min" : [
                -9.375,
                -0.05000007897615433,
                -7.5
            ],
            "type" : "VEC3"
        },
        {
            "bufferView" : 9,
            "componentType" : 5126,
            "count" : 676,
            "type" : "VEC3"
        },
        {
            "bufferView" : 10,
            "componentType" : 5126,
            "count" : 676,
            "type" : "VEC2"
        },
        {
            "bufferView" : 11,
            "componentType" : 5123,
            "count" : 1014,
            "type" : "SCALAR"
        },
        {
            "bufferView" : 12,
            "componentType" : 5126,
            "count" : 772,
            "max" : [
                8.75,
                0.04999999701976776,
                9.375
            ],
            "min" : [
                -10,
                -0.05000007897615433,
                -10
            ],
            "type" : "VEC3"
        },
        {
            "bufferView" : 13,
            "componentType" : 5126,
            "count" : 772,
            "type" : "VEC3"
        },
        {
            "bufferView" : 14,
            "componentType" : 5126,
            "count" : 772,
            "type" : "VEC2"
        },
        {
            "bufferView" : 15,
            "componentType" : 5123,
            "count" : 1158,
            "type" : "SCALAR"
        }
    ],
    "bufferViews" : [
        {
            "buffer" : 0,
            "byteLength" : 7272,
            "byteOffset" : 0
        },
        {
            "buffer" : 0,
            "byteLength" : 7272,
            "byteOffset" : 7272
        },
        {
            "buffer" : 0,
            "byteLength" : 4848,
            "byteOffset" : 14544
        },
        {
            "buffer" : 0,
            "byteLength" : 2268,
            "byteOffset" : 19392
        },
        {
            "buffer" : 0,
            "byteLength" : 10392,
            "byteOffset" : 21660
        },
        {
            "buffer" : 0,
            "byteLength" : 10392,
            "byteOffset" : 32052
        },
        {
            "buffer" : 0,
            "byteLength" : 6928,
            "byteOffset" : 42444
        },
        {
            "buffer" : 0,
            "byteLength" : 4452,
            "byteOffset" : 49372
        },
        {
            "buffer" : 0,
            "byteLength" : 8112,
            "byteOffset" : 53824
        },
        {
            "buffer" : 0,
            "byteLength" : 8112,
            "byteOffset" : 61936
        },
        {
            "buffer" : 0,
            "byteLength" : 5408,
            "byteOffset" : 70048
        },
        {
            "buffer" : 0,
            "byteLength" : 2028,
            "byteOffset" : 75456
        },
        {
            "buffer" : 0,
            "byteLength" : 9264,
            "byteOffset" : 77484
        },
        {
            "buffer" : 0,
            "byteLength" : 9264,
            "byteOffset" : 86748
        },
        {
            "buffer" : 0,
            "byteLength" : 6176,
            "byteOffset" : 96012
        },
        {
            "buffer" : 0,
            "byteLength" : 2316,
            "byteOffset" : 102188
        }
    ],
    "buffers" : [
        {
            "byteLength" : 104504,
            "uri" : "data:application/octet-stream;base64,"
        }
    ]
}
