{
    "asset" : {
        "generator" : "Khronos glTF Blender I/O v1.1.45",
        "version" : "2.0"
    },
    "scene" : 0,
    "scenes" : [
        {
            "name" : "Scene",
            "nodes" : [
                0
            ]
        }
    ],
    "nodes" : [
        {
            "mesh" : 0,
            "name" : "lamp_block"
        }
    ],
    "materials" : [
        {
            "doubleSided" : true,
            "emissiveFactor" : [
                0,
                0,
                0
            ],
            "name" : "lamp_shadow",
            "pbrMetallicRoughness" : {
                "baseColorFactor" : [
                    0.800000011920929,
                    0.800000011920929,
                    0.800000011920929,
                    1
                ],
                "metallicFactor" : 0,
                "roughnessFactor" : 0.5
            }
        },
        {
            "doubleSided" : true,
            "emissiveFactor" : [
                0,
                0,
                0
            ],
            "name" : "lamp",
            "pbrMetallicRoughness" : {
                "baseColorFactor" : [
                    0.800000011920929,
                    0.800000011920929,
                    0.800000011920929,
                    1
                ],
                "metallicFactor" : 0,
                "roughnessFactor" : 0.5
            }
        },
        {
            "doubleSided" : true,
            "emissiveFactor" : [
                0,
                0,
                0
            ],
            "name" : "base",
            "pbrMetallicRoughness" : {
                "baseColorFactor" : [
                    0.800000011920929,
                    0.800000011920929,
                    0.800000011920929,
                    1
                ],
                "metallicFactor" : 0,
                "roughnessFactor" : 0.5
            }
        },
        {
            "doubleSided" : true,
            "emissiveFactor" : [
                0,
                0,
                0
            ],
            "name" : "base_shadow",
            "pbrMetallicRoughness" : {
                "baseColorFactor" : [
                    0.800000011920929,
                    0.800000011920929,
                    0.800000011920929,
                    1
                ],
                "metallicFactor" : 0,
                "roughnessFactor" : 0.5
            }
        },
        {
            "doubleSided" : true,
            "emissiveFactor" : [
                0,
                0,
                0
            ],
            "name" : "plug_metal_shadow",
            "pbrMetallicRoughness" : {
                "baseColorFactor" : [
                    0.800000011920929,
                    0.800000011920929,
                    0.800000011920929,
                    1
                ],
                "metallicFactor" : 0,
                "roughnessFactor" : 0.5
            }
        },
        {
            "doubleSided" : true,
            "emissiveFactor" : [
                0,
                0,
                0
            ],
            "name" : "plug_metal",
            "pbrMetallicRoughness" : {
                "baseColorFactor" : [
                    0.800000011920929,
                    0.800000011920929,
                    0.800000011920929,
                    1
                ],
                "metallicFactor" : 0,
                "roughnessFactor" : 0.5
            }
        },
        {
            "doubleSided" : true,
            "emissiveFactor" : [
                0,
                0,
                0
            ],
            "name" : "lamp_plug_shadow",
            "pbrMetallicRoughness" : {
                "baseColorFactor" : [
                    0.800000011920929,
                    0.800000011920929,
                    0.800000011920929,
                    1
                ],
                "metallicFactor" : 0,
                "roughnessFactor" : 0.5
            }
        },
        {
            "doubleSided" : true,
            "emissiveFactor" : [
                0,
                0,
                0
            ],
            "name" : "lamp_plug",
            "pbrMetallicRoughness" : {
                "baseColorFactor" : [
                    0.800000011920929,
                    0.800000011920929,
                    0.800000011920929,
                    1
                ],
                "metallicFactor" : 0,
                "roughnessFactor" : 0.5
            }
        }
    ],
    "meshes" : [
        {
            "name" : "Cube.003",
            "primitives" : [
                {
                    "attributes" : {
                        "POSITION" : 0,
                        "NORMAL" : 1,
                        "TEXCOORD_0" : 2
                    },
                    "indices" : 3,
                    "material" : 0
                },
                {
                    "attributes" : {
                        "POSITION" : 4,
                        "NORMAL" : 5,
                        "TEXCOORD_0" : 6
                    },
                    "indices" : 7,
                    "material" : 1
                },
                {
                    "attributes" : {
                        "POSITION" : 8,
                        "NORMAL" : 9,
                        "TEXCOORD_0" : 10
                    },
                    "indices" : 11,
                    "material" : 2
                },
                {
                    "attributes" : {
                        "POSITION" : 12,
                        "NORMAL" : 13,
                        "TEXCOORD_0" : 14
                    },
                    "indices" : 15,
                    "material" : 3
                },
                {
                    "attributes" : {
                        "POSITION" : 16,
                        "NORMAL" : 17,
                        "TEXCOORD_0" : 18
                    },
                    "indices" : 19,
                    "material" : 4
                },
                {
                    "attributes" : {
                        "POSITION" : 20,
                        "NORMAL" : 21,
                        "TEXCOORD_0" : 22
                    },
                    "indices" : 23,
                    "material" : 5
                },
                {
                    "attributes" : {
                        "POSITION" : 24,
                        "NORMAL" : 25,
                        "TEXCOORD_0" : 26
                    },
                    "indices" : 27,
                    "material" : 6
                },
                {
                    "attributes" : {
                        "POSITION" : 28,
                        "NORMAL" : 29,
                        "TEXCOORD_0" : 30
                    },
                    "indices" : 31,
                    "material" : 7
                }
            ]
        }
    ],
    "accessors" : [
        {
            "bufferView" : 0,
            "componentType" : 5126,
            "count" : 576,
            "max" : [
                0.016373364254832268,
                0.03994022309780121,
                0.016373589634895325
            ],
            "min" : [
                -0.016373347491025925,
                0.011626294814050198,
                -0.01637312024831772
            ],
            "type" : "VEC3"
        },
        {
            "bufferView" : 1,
            "componentType" : 5126,
            "count" : 576,
            "type" : "VEC3"
        },
        {
            "bufferView" : 2,
            "componentType" : 5126,
            "count" : 576,
            "type" : "VEC2"
        },
        {
            "bufferView" : 3,
            "componentType" : 5123,
            "count" : 858,
            "type" : "SCALAR"
        },
        {
            "bufferView" : 4,
            "componentType" : 5126,
            "count" : 1344,
            "max" : [
                0.04448825493454933,
                0.1264486014842987,
                0.04448850080370903
            ],
            "min" : [
                -0.04448824003338814,
                0.03994019329547882,
                -0.04448799416422844
            ],
            "type" : "VEC3"
        },
        {
            "bufferView" : 5,
            "componentType" : 5126,
            "count" : 1344,
            "type" : "VEC3"
        },
        {
            "bufferView" : 6,
            "componentType" : 5126,
            "count" : 1344,
            "type" : "VEC2"
        },
        {
            "bufferView" : 7,
            "componentType" : 5123,
            "count" : 2010,
            "type" : "SCALAR"
        },
        {
            "bufferView" : 8,
            "componentType" : 5126,
            "count" : 64,
            "max" : [
                0.10487189888954163,
                0.00863112136721611,
                0.03206179291009903
            ],
            "min" : [
                -0.10487189143896103,
                -0.00863112136721611,
                -0.03206179291009903
            ],
            "type" : "VEC3"
        },
        {
            "bufferView" : 9,
            "componentType" : 5126,
            "count" : 64,
            "type" : "VEC3"
        },
        {
            "bufferView" : 10,
            "componentType" : 5126,
            "count" : 64,
            "type" : "VEC2"
        },
        {
            "bufferView" : 11,
            "componentType" : 5123,
            "count" : 84,
            "type" : "SCALAR"
        },
        {
            "bufferView" : 12,
            "componentType" : 5126,
            "count" : 32,
            "max" : [
                0.10487189888954163,
                0.007453266531229019,
                0.03206179291009903
            ],
            "min" : [
                -0.10487189143896103,
                -0.0074533019214868546,
                -0.03206179291009903
            ],
            "type" : "VEC3"
        },
        {
            "bufferView" : 13,
            "componentType" : 5126,
            "count" : 32,
            "type" : "VEC3"
        },
        {
            "bufferView" : 14,
            "componentType" : 5126,
            "count" : 32,
            "type" : "VEC2"
        },
        {
            "bufferView" : 15,
            "componentType" : 5123,
            "count" : 48,
            "type" : "SCALAR"
        },
        {
            "bufferView" : 16,
            "componentType" : 5126,
            "count" : 320,
            "max" : [
                0.10575899481773376,
                0.004178457427769899,
                0.032971132546663284
            ],
            "min" : [
                -0.10575912892818451,
                -0.004178457427769899,
                -0.032971128821372986
            ],
            "type" : "VEC3"
        },
        {
            "bufferView" : 17,
            "componentType" : 5126,
            "count" : 320,
            "type" : "VEC3"
        },
        {
            "bufferView" : 18,
            "componentType" : 5126,
            "count" : 320,
            "type" : "VEC2"
        },
        {
            "bufferView" : 19,
            "componentType" : 5123,
            "count" : 480,
            "type" : "SCALAR"
        },
        {
            "bufferView" : 20,
            "componentType" : 5126,
            "count" : 320,
            "max" : [
                0.10604484379291534,
                0.004178457427769899,
                0.03325699642300606
            ],
            "min" : [
                -0.10604499280452728,
                -0.004178457427769899,
                -0.03325699269771576
            ],
            "type" : "VEC3"
        },
        {
            "bufferView" : 21,
            "componentType" : 5126,
            "count" : 320,
            "type" : "VEC3"
        },
        {
            "bufferView" : 22,
            "componentType" : 5126,
            "count" : 320,
            "type" : "VEC2"
        },
        {
            "bufferView" : 23,
            "componentType" : 5123,
            "count" : 432,
            "type" : "SCALAR"
        },
        {
            "bufferView" : 24,
            "componentType" : 5126,
            "count" : 172,
            "max" : [
                0.016280699521303177,
                0.031213022768497467,
                0.016280701383948326
            ],
            "min" : [
                -0.016280699521303177,
                0.030213024467229843,
                -0.016280699521303177
            ],
            "type" : "VEC3"
        },
        {
            "bufferView" : 25,
            "componentType" : 5126,
            "count" : 172,
            "type" : "VEC3"
        },
        {
            "bufferView" : 26,
            "componentType" : 5126,
            "count" : 172,
            "type" : "VEC2"
        },
        {
            "bufferView" : 27,
            "componentType" : 5123,
            "count" : 288,
            "type" : "SCALAR"
        },
        {
            "bufferView" : 28,
            "componentType" : 5126,
            "count" : 480,
            "max" : [
                0.017325107008218765,
                0.031213022768497467,
                0.017325107008218765
            ],
            "min" : [
                -0.017325107008218765,
                0.005234399810433388,
                -0.017325105145573616
            ],
            "type" : "VEC3"
        },
        {
            "bufferView" : 29,
            "componentType" : 5126,
            "count" : 480,
            "type" : "VEC3"
        },
        {
            "bufferView" : 30,
            "componentType" : 5126,
            "count" : 480,
            "type" : "VEC2"
        },
        {
            "bufferView" : 31,
            "componentType" : 5123,
            "count" : 708,
            "type" : "SCALAR"
        }
    ],
    "bufferViews" : [
        {
            "buffer" : 0,
            "byteLength" : 6912,
            "byteOffset" : 0
        },
        {
            "buffer" : 0,
            "byteLength" : 6912,
            "byteOffset" : 6912
        },
        {
            "buffer" : 0,
            "byteLength" : 4608,
            "byteOffset" : 13824
        },
        {
            "buffer" : 0,
            "byteLength" : 1716,
            "byteOffset" : 18432
        },
        {
            "buffer" : 0,
            "byteLength" : 16128,
            "byteOffset" : 20148
        },
        {
            "buffer" : 0,
            "byteLength" : 16128,
            "byteOffset" : 36276
        },
        {
            "buffer" : 0,
            "byteLength" : 10752,
            "byteOffset" : 52404
        },
        {
            "buffer" : 0,
            "byteLength" : 4020,
            "byteOffset" : 63156
        },
        {
            "buffer" : 0,
            "byteLength" : 768,
            "byteOffset" : 67176
        },
        {
            "buffer" : 0,
            "byteLength" : 768,
            "byteOffset" : 67944
        },
        {
            "buffer" : 0,
            "byteLength" : 512,
            "byteOffset" : 68712
        },
        {
            "buffer" : 0,
            "byteLength" : 168,
            "byteOffset" : 69224
        },
        {
            "buffer" : 0,
            "byteLength" : 384,
            "byteOffset" : 69392
        },
        {
            "buffer" : 0,
            "byteLength" : 384,
            "byteOffset" : 69776
        },
        {
            "buffer" : 0,
            "byteLength" : 256,
            "byteOffset" : 70160
        },
        {
            "buffer" : 0,
            "byteLength" : 96,
            "byteOffset" : 70416
        },
        {
            "buffer" : 0,
            "byteLength" : 3840,
            "byteOffset" : 70512
        },
        {
            "buffer" : 0,
            "byteLength" : 3840,
            "byteOffset" : 74352
        },
        {
            "buffer" : 0,
            "byteLength" : 2560,
            "byteOffset" : 78192
        },
        {
            "buffer" : 0,
            "byteLength" : 960,
            "byteOffset" : 80752
        },
        {
            "buffer" : 0,
            "byteLength" : 3840,
            "byteOffset" : 81712
        },
        {
            "buffer" : 0,
            "byteLength" : 3840,
            "byteOffset" : 85552
        },
        {
            "buffer" : 0,
            "byteLength" : 2560,
            "byteOffset" : 89392
        },
        {
            "buffer" : 0,
            "byteLength" : 864,
            "byteOffset" : 91952
        },
        {
            "buffer" : 0,
            "byteLength" : 2064,
            "byteOffset" : 92816
        },
        {
            "buffer" : 0,
            "byteLength" : 2064,
            "byteOffset" : 94880
        },
        {
            "buffer" : 0,
            "byteLength" : 1376,
            "byteOffset" : 96944
        },
        {
            "buffer" : 0,
            "byteLength" : 576,
            "byteOffset" : 98320
        },
        {
            "buffer" : 0,
            "byteLength" : 5760,
            "byteOffset" : 98896
        },
        {
            "buffer" : 0,
            "byteLength" : 5760,
            "byteOffset" : 104656
        },
        {
            "buffer" : 0,
            "byteLength" : 3840,
            "byteOffset" : 110416
        },
        {
            "buffer" : 0,
            "byteLength" : 1416,
            "byteOffset" : 114256
        }
    ],
    "buffers" : [
        {
            "byteLength" : 115672,
            "uri" : "data:application/octet-stream;base64,"
        }
    ]
}
