{
    "asset" : {
        "generator" : "Khronos glTF Blender I/O v1.1.45",
        "version" : "2.0"
    },
    "scene" : 0,
    "scenes" : [
        {
            "name" : "Scene",
            "nodes" : [
                0
            ]
        }
    ],
    "nodes" : [
        {
            "mesh" : 0,
            "name" : "switch_block_base"
        }
    ],
    "materials" : [
        {
            "doubleSided" : true,
            "emissiveFactor" : [
                0,
                0,
                0
            ],
            "name" : "base.004",
            "pbrMetallicRoughness" : {
                "baseColorFactor" : [
                    0.3915730118751526,
                    0.7991030812263489,
                    0.33245161175727844,
                    1
                ],
                "metallicFactor" : 0,
                "roughnessFactor" : 0.5
            }
        },
        {
            "doubleSided" : true,
            "emissiveFactor" : [
                0,
                0,
                0
            ],
            "name" : "base_shadow.004",
            "pbrMetallicRoughness" : {
                "baseColorFactor" : [
                    0.800000011920929,
                    0.800000011920929,
                    0.800000011920929,
                    1
                ],
                "metallicFactor" : 0,
                "roughnessFactor" : 0.5
            }
        },
        {
            "doubleSided" : true,
            "emissiveFactor" : [
                0,
                0,
                0
            ],
            "name" : "plug_metal_shadow.004",
            "pbrMetallicRoughness" : {
                "baseColorFactor" : [
                    0.800000011920929,
                    0.800000011920929,
                    0.800000011920929,
                    1
                ],
                "metallicFactor" : 0,
                "roughnessFactor" : 0.5
            }
        },
        {
            "doubleSided" : true,
            "emissiveFactor" : [
                0,
                0,
                0
            ],
            "name" : "plug_metal.004",
            "pbrMetallicRoughness" : {
                "baseColorFactor" : [
                    0.800000011920929,
                    0.800000011920929,
                    0.800000011920929,
                    1
                ],
                "metallicFactor" : 0,
                "roughnessFactor" : 0.5
            }
        },
        {
            "doubleSided" : true,
            "emissiveFactor" : [
                0,
                0,
                0
            ],
            "name" : "switch.006",
            "pbrMetallicRoughness" : {
                "baseColorFactor" : [
                    0.800000011920929,
                    0.800000011920929,
                    0.800000011920929,
                    1
                ],
                "metallicFactor" : 0,
                "roughnessFactor" : 0.5
            }
        },
        {
            "doubleSided" : true,
            "emissiveFactor" : [
                0,
                0,
                0
            ],
            "name" : "switch_shadow.006",
            "pbrMetallicRoughness" : {
                "baseColorFactor" : [
                    0.800000011920929,
                    0.800000011920929,
                    0.800000011920929,
                    1
                ],
                "metallicFactor" : 0,
                "roughnessFactor" : 0.5
            }
        }
    ],
    "meshes" : [
        {
            "name" : "Cube.011",
            "primitives" : [
                {
                    "attributes" : {
                        "POSITION" : 0,
                        "NORMAL" : 1,
                        "TEXCOORD_0" : 2
                    },
                    "indices" : 3,
                    "material" : 0
                },
                {
                    "attributes" : {
                        "POSITION" : 4,
                        "NORMAL" : 5,
                        "TEXCOORD_0" : 6
                    },
                    "indices" : 7,
                    "material" : 1
                },
                {
                    "attributes" : {
                        "POSITION" : 8,
                        "NORMAL" : 9,
                        "TEXCOORD_0" : 10
                    },
                    "indices" : 11,
                    "material" : 2
                },
                {
                    "attributes" : {
                        "POSITION" : 12,
                        "NORMAL" : 13,
                        "TEXCOORD_0" : 14
                    },
                    "indices" : 15,
                    "material" : 3
                },
                {
                    "attributes" : {
                        "POSITION" : 16,
                        "NORMAL" : 17,
                        "TEXCOORD_0" : 18
                    },
                    "indices" : 19,
                    "material" : 4
                },
                {
                    "attributes" : {
                        "POSITION" : 20,
                        "NORMAL" : 21,
                        "TEXCOORD_0" : 22
                    },
                    "indices" : 23,
                    "material" : 5
                }
            ]
        }
    ],
    "accessors" : [
        {
            "bufferView" : 0,
            "componentType" : 5126,
            "count" : 64,
            "max" : [
                0.10487189888954163,
                0.00863112136721611,
                0.03206179291009903
            ],
            "min" : [
                -0.10487189143896103,
                -0.00863112136721611,
                -0.03206179291009903
            ],
            "type" : "VEC3"
        },
        {
            "bufferView" : 1,
            "componentType" : 5126,
            "count" : 64,
            "type" : "VEC3"
        },
        {
            "bufferView" : 2,
            "componentType" : 5126,
            "count" : 64,
            "type" : "VEC2"
        },
        {
            "bufferView" : 3,
            "componentType" : 5123,
            "count" : 84,
            "type" : "SCALAR"
        },
        {
            "bufferView" : 4,
            "componentType" : 5126,
            "count" : 32,
            "max" : [
                0.10487189888954163,
                0.007453266531229019,
                0.03206179291009903
            ],
            "min" : [
                -0.10487189143896103,
                -0.0074533019214868546,
                -0.03206179291009903
            ],
            "type" : "VEC3"
        },
        {
            "bufferView" : 5,
            "componentType" : 5126,
            "count" : 32,
            "type" : "VEC3"
        },
        {
            "bufferView" : 6,
            "componentType" : 5126,
            "count" : 32,
            "type" : "VEC2"
        },
        {
            "bufferView" : 7,
            "componentType" : 5123,
            "count" : 48,
            "type" : "SCALAR"
        },
        {
            "bufferView" : 8,
            "componentType" : 5126,
            "count" : 320,
            "max" : [
                0.10575899481773376,
                0.004178457427769899,
                0.032971132546663284
            ],
            "min" : [
                -0.10575912892818451,
                -0.004178457427769899,
                -0.032971128821372986
            ],
            "type" : "VEC3"
        },
        {
            "bufferView" : 9,
            "componentType" : 5126,
            "count" : 320,
            "type" : "VEC3"
        },
        {
            "bufferView" : 10,
            "componentType" : 5126,
            "count" : 320,
            "type" : "VEC2"
        },
        {
            "bufferView" : 11,
            "componentType" : 5123,
            "count" : 480,
            "type" : "SCALAR"
        },
        {
            "bufferView" : 12,
            "componentType" : 5126,
            "count" : 320,
            "max" : [
                0.10604484379291534,
                0.004178457427769899,
                0.03325699642300606
            ],
            "min" : [
                -0.10604499280452728,
                -0.004178457427769899,
                -0.03325699269771576
            ],
            "type" : "VEC3"
        },
        {
            "bufferView" : 13,
            "componentType" : 5126,
            "count" : 320,
            "type" : "VEC3"
        },
        {
            "bufferView" : 14,
            "componentType" : 5126,
            "count" : 320,
            "type" : "VEC2"
        },
        {
            "bufferView" : 15,
            "componentType" : 5123,
            "count" : 432,
            "type" : "SCALAR"
        },
        {
            "bufferView" : 16,
            "componentType" : 5126,
            "count" : 464,
            "max" : [
                0.03653102368116379,
                0.056710194796323776,
                0.008063813671469688
            ],
            "min" : [
                -0.040169090032577515,
                0.00683891586959362,
                -0.008063598535954952
            ],
            "type" : "VEC3"
        },
        {
            "bufferView" : 17,
            "componentType" : 5126,
            "count" : 464,
            "type" : "VEC3"
        },
        {
            "bufferView" : 18,
            "componentType" : 5126,
            "count" : 464,
            "type" : "VEC2"
        },
        {
            "bufferView" : 19,
            "componentType" : 5123,
            "count" : 672,
            "type" : "SCALAR"
        },
        {
            "bufferView" : 20,
            "componentType" : 5126,
            "count" : 306,
            "max" : [
                0.03653102368116379,
                0.056710194796323776,
                0.007063813507556915
            ],
            "min" : [
                -0.040169090032577515,
                0.00683891586959362,
                -0.007063598372042179
            ],
            "type" : "VEC3"
        },
        {
            "bufferView" : 21,
            "componentType" : 5126,
            "count" : 306,
            "type" : "VEC3"
        },
        {
            "bufferView" : 22,
            "componentType" : 5126,
            "count" : 306,
            "type" : "VEC2"
        },
        {
            "bufferView" : 23,
            "componentType" : 5123,
            "count" : 744,
            "type" : "SCALAR"
        }
    ],
    "bufferViews" : [
        {
            "buffer" : 0,
            "byteLength" : 768,
            "byteOffset" : 0
        },
        {
            "buffer" : 0,
            "byteLength" : 768,
            "byteOffset" : 768
        },
        {
            "buffer" : 0,
            "byteLength" : 512,
            "byteOffset" : 1536
        },
        {
            "buffer" : 0,
            "byteLength" : 168,
            "byteOffset" : 2048
        },
        {
            "buffer" : 0,
            "byteLength" : 384,
            "byteOffset" : 2216
        },
        {
            "buffer" : 0,
            "byteLength" : 384,
            "byteOffset" : 2600
        },
        {
            "buffer" : 0,
            "byteLength" : 256,
            "byteOffset" : 2984
        },
        {
            "buffer" : 0,
            "byteLength" : 96,
            "byteOffset" : 3240
        },
        {
            "buffer" : 0,
            "byteLength" : 3840,
            "byteOffset" : 3336
        },
        {
            "buffer" : 0,
            "byteLength" : 3840,
            "byteOffset" : 7176
        },
        {
            "buffer" : 0,
            "byteLength" : 2560,
            "byteOffset" : 11016
        },
        {
            "buffer" : 0,
            "byteLength" : 960,
            "byteOffset" : 13576
        },
        {
            "buffer" : 0,
            "byteLength" : 3840,
            "byteOffset" : 14536
        },
        {
            "buffer" : 0,
            "byteLength" : 3840,
            "byteOffset" : 18376
        },
        {
            "buffer" : 0,
            "byteLength" : 2560,
            "byteOffset" : 22216
        },
        {
            "buffer" : 0,
            "byteLength" : 864,
            "byteOffset" : 24776
        },
        {
            "buffer" : 0,
            "byteLength" : 5568,
            "byteOffset" : 25640
        },
        {
            "buffer" : 0,
            "byteLength" : 5568,
            "byteOffset" : 31208
        },
        {
            "buffer" : 0,
            "byteLength" : 3712,
            "byteOffset" : 36776
        },
        {
            "buffer" : 0,
            "byteLength" : 1344,
            "byteOffset" : 40488
        },
        {
            "buffer" : 0,
            "byteLength" : 3672,
            "byteOffset" : 41832
        },
        {
            "buffer" : 0,
            "byteLength" : 3672,
            "byteOffset" : 45504
        },
        {
            "buffer" : 0,
            "byteLength" : 2448,
            "byteOffset" : 49176
        },
        {
            "buffer" : 0,
            "byteLength" : 1488,
            "byteOffset" : 51624
        }
    ],
    "buffers" : [
        {
            "byteLength" : 53112,
            "uri" : "data:application/octet-stream;base64,"
        }
    ]
}
