{
    "asset" : {
        "generator" : "Khronos glTF Blender I/O v1.1.45",
        "version" : "2.0"
    },
    "scene" : 0,
    "scenes" : [
        {
            "name" : "Scene",
            "nodes" : [
                0
            ]
        }
    ],
    "nodes" : [
        {
            "mesh" : 0,
            "name" : "switch_block_one_mesh"
        }
    ],
    "materials" : [
        {
            "doubleSided" : true,
            "emissiveFactor" : [
                0,
                0,
                0
            ],
            "name" : "base",
            "pbrMetallicRoughness" : {
                "baseColorFactor" : [
                    0.3915730118751526,
                    0.7991030812263489,
                    0.33245161175727844,
                    1
                ],
                "metallicFactor" : 0,
                "roughnessFactor" : 0.5
            }
        },
        {
            "doubleSided" : true,
            "emissiveFactor" : [
                0,
                0,
                0
            ],
            "name" : "base_shadow",
            "pbrMetallicRoughness" : {
                "baseColorFactor" : [
                    0.800000011920929,
                    0.800000011920929,
                    0.800000011920929,
                    1
                ],
                "metallicFactor" : 0,
                "roughnessFactor" : 0.5
            }
        },
        {
            "doubleSided" : true,
            "emissiveFactor" : [
                0,
                0,
                0
            ],
            "name" : "plug_metal_shadow",
            "pbrMetallicRoughness" : {
                "baseColorFactor" : [
                    0.800000011920929,
                    0.800000011920929,
                    0.800000011920929,
                    1
                ],
                "metallicFactor" : 0,
                "roughnessFactor" : 0.5
            }
        },
        {
            "doubleSided" : true,
            "emissiveFactor" : [
                0,
                0,
                0
            ],
            "name" : "plug_metal",
            "pbrMetallicRoughness" : {
                "baseColorFactor" : [
                    0.800000011920929,
                    0.800000011920929,
                    0.800000011920929,
                    1
                ],
                "metallicFactor" : 0,
                "roughnessFactor" : 0.5
            }
        },
        {
            "doubleSided" : true,
            "emissiveFactor" : [
                0,
                0,
                0
            ],
            "name" : "switch.003",
            "pbrMetallicRoughness" : {
                "baseColorFactor" : [
                    0.800000011920929,
                    0.800000011920929,
                    0.800000011920929,
                    1
                ],
                "metallicFactor" : 0,
                "roughnessFactor" : 0.5
            }
        },
        {
            "doubleSided" : true,
            "emissiveFactor" : [
                0,
                0,
                0
            ],
            "name" : "switch_shadow.003",
            "pbrMetallicRoughness" : {
                "baseColorFactor" : [
                    0.800000011920929,
                    0.800000011920929,
                    0.800000011920929,
                    1
                ],
                "metallicFactor" : 0,
                "roughnessFactor" : 0.5
            }
        },
        {
            "doubleSided" : true,
            "emissiveFactor" : [
                0,
                0,
                0
            ],
            "name" : "switch_handle.003",
            "pbrMetallicRoughness" : {
                "baseColorFactor" : [
                    0.800000011920929,
                    0.800000011920929,
                    0.800000011920929,
                    1
                ],
                "metallicFactor" : 0,
                "roughnessFactor" : 0.5
            }
        },
        {
            "doubleSided" : true,
            "emissiveFactor" : [
                0,
                0,
                0
            ],
            "name" : "switch_handle_shadow.003",
            "pbrMetallicRoughness" : {
                "baseColorFactor" : [
                    0.800000011920929,
                    0.800000011920929,
                    0.800000011920929,
                    1
                ],
                "metallicFactor" : 0,
                "roughnessFactor" : 0.5
            }
        }
    ],
    "meshes" : [
        {
            "name" : "Cube.005",
            "primitives" : [
                {
                    "attributes" : {
                        "POSITION" : 0,
                        "NORMAL" : 1,
                        "TEXCOORD_0" : 2
                    },
                    "indices" : 3,
                    "material" : 0
                },
                {
                    "attributes" : {
                        "POSITION" : 4,
                        "NORMAL" : 5,
                        "TEXCOORD_0" : 6
                    },
                    "indices" : 7,
                    "material" : 1
                },
                {
                    "attributes" : {
                        "POSITION" : 8,
                        "NORMAL" : 9,
                        "TEXCOORD_0" : 10
                    },
                    "indices" : 11,
                    "material" : 2
                },
                {
                    "attributes" : {
                        "POSITION" : 12,
                        "NORMAL" : 13,
                        "TEXCOORD_0" : 14
                    },
                    "indices" : 15,
                    "material" : 3
                },
                {
                    "attributes" : {
                        "POSITION" : 16,
                        "NORMAL" : 17,
                        "TEXCOORD_0" : 18
                    },
                    "indices" : 19,
                    "material" : 4
                },
                {
                    "attributes" : {
                        "POSITION" : 20,
                        "NORMAL" : 21,
                        "TEXCOORD_0" : 22
                    },
                    "indices" : 23,
                    "material" : 5
                },
                {
                    "attributes" : {
                        "POSITION" : 24,
                        "NORMAL" : 25,
                        "TEXCOORD_0" : 26
                    },
                    "indices" : 27,
                    "material" : 6
                },
                {
                    "attributes" : {
                        "POSITION" : 28,
                        "NORMAL" : 29,
                        "TEXCOORD_0" : 30
                    },
                    "indices" : 31,
                    "material" : 7
                }
            ]
        }
    ],
    "accessors" : [
        {
            "bufferView" : 0,
            "componentType" : 5126,
            "count" : 64,
            "max" : [
                0.10487189888954163,
                0.00863112136721611,
                0.03206179291009903
            ],
            "min" : [
                -0.10487189143896103,
                -0.00863112136721611,
                -0.03206179291009903
            ],
            "type" : "VEC3"
        },
        {
            "bufferView" : 1,
            "componentType" : 5126,
            "count" : 64,
            "type" : "VEC3"
        },
        {
            "bufferView" : 2,
            "componentType" : 5126,
            "count" : 64,
            "type" : "VEC2"
        },
        {
            "bufferView" : 3,
            "componentType" : 5123,
            "count" : 84,
            "type" : "SCALAR"
        },
        {
            "bufferView" : 4,
            "componentType" : 5126,
            "count" : 32,
            "max" : [
                0.10487189888954163,
                0.007453266531229019,
                0.03206179291009903
            ],
            "min" : [
                -0.10487189143896103,
                -0.0074533019214868546,
                -0.03206179291009903
            ],
            "type" : "VEC3"
        },
        {
            "bufferView" : 5,
            "componentType" : 5126,
            "count" : 32,
            "type" : "VEC3"
        },
        {
            "bufferView" : 6,
            "componentType" : 5126,
            "count" : 32,
            "type" : "VEC2"
        },
        {
            "bufferView" : 7,
            "componentType" : 5123,
            "count" : 48,
            "type" : "SCALAR"
        },
        {
            "bufferView" : 8,
            "componentType" : 5126,
            "count" : 320,
            "max" : [
                0.10575899481773376,
                0.004178457427769899,
                0.032971132546663284
            ],
            "min" : [
                -0.10575912892818451,
                -0.004178457427769899,
                -0.032971128821372986
            ],
            "type" : "VEC3"
        },
        {
            "bufferView" : 9,
            "componentType" : 5126,
            "count" : 320,
            "type" : "VEC3"
        },
        {
            "bufferView" : 10,
            "componentType" : 5126,
            "count" : 320,
            "type" : "VEC2"
        },
        {
            "bufferView" : 11,
            "componentType" : 5123,
            "count" : 480,
            "type" : "SCALAR"
        },
        {
            "bufferView" : 12,
            "componentType" : 5126,
            "count" : 1090,
            "max" : [
                0.10604484379291534,
                0.056710194796323776,
                0.03325699642300606
            ],
            "min" : [
                -0.10604499280452728,
                -0.004178457427769899,
                -0.03325699269771576
            ],
            "type" : "VEC3"
        },
        {
            "bufferView" : 13,
            "componentType" : 5126,
            "count" : 1090,
            "type" : "VEC3"
        },
        {
            "bufferView" : 14,
            "componentType" : 5126,
            "count" : 1090,
            "type" : "VEC2"
        },
        {
            "bufferView" : 15,
            "componentType" : 5123,
            "count" : 1848,
            "type" : "SCALAR"
        },
        {
            "bufferView" : 16,
            "componentType" : 5126,
            "count" : 44,
            "max" : [
                0.042535558342933655,
                0.055589187890291214,
                0.0013068236876279116
            ],
            "min" : [
                -0.038322847336530685,
                0.04064689949154854,
                -0.0013068642001599073
            ],
            "type" : "VEC3"
        },
        {
            "bufferView" : 17,
            "componentType" : 5126,
            "count" : 44,
            "type" : "VEC3"
        },
        {
            "bufferView" : 18,
            "componentType" : 5126,
            "count" : 44,
            "type" : "VEC2"
        },
        {
            "bufferView" : 19,
            "componentType" : 5123,
            "count" : 60,
            "type" : "SCALAR"
        },
        {
            "bufferView" : 20,
            "componentType" : 5126,
            "count" : 52,
            "max" : [
                0.04353555291891098,
                0.05658918619155884,
                0.002306823618710041
            ],
            "min" : [
                -0.038322847336530685,
                0.039646901190280914,
                -0.002306864131242037
            ],
            "type" : "VEC3"
        },
        {
            "bufferView" : 21,
            "componentType" : 5126,
            "count" : 52,
            "type" : "VEC3"
        },
        {
            "bufferView" : 22,
            "componentType" : 5126,
            "count" : 52,
            "type" : "VEC2"
        },
        {
            "bufferView" : 23,
            "componentType" : 5123,
            "count" : 78,
            "type" : "SCALAR"
        },
        {
            "bufferView" : 24,
            "componentType" : 5126,
            "count" : 72,
            "max" : [
                0.06277555972337723,
                0.058234844356775284,
                0.0038138178642839193
            ],
            "min" : [
                0.04353555291891098,
                0.03800079971551895,
                -0.003813858376815915
            ],
            "type" : "VEC3"
        },
        {
            "bufferView" : 25,
            "componentType" : 5126,
            "count" : 72,
            "type" : "VEC3"
        },
        {
            "bufferView" : 26,
            "componentType" : 5126,
            "count" : 72,
            "type" : "VEC2"
        },
        {
            "bufferView" : 27,
            "componentType" : 5123,
            "count" : 96,
            "type" : "SCALAR"
        },
        {
            "bufferView" : 28,
            "componentType" : 5126,
            "count" : 64,
            "max" : [
                0.06277555972337723,
                0.058234844356775284,
                0.002814000006765127
            ],
            "min" : [
                0.04353555291891098,
                0.03800079971551895,
                -0.002814000006765127
            ],
            "type" : "VEC3"
        },
        {
            "bufferView" : 29,
            "componentType" : 5126,
            "count" : 64,
            "type" : "VEC3"
        },
        {
            "bufferView" : 30,
            "componentType" : 5126,
            "count" : 64,
            "type" : "VEC2"
        },
        {
            "bufferView" : 31,
            "componentType" : 5123,
            "count" : 90,
            "type" : "SCALAR"
        }
    ],
    "bufferViews" : [
        {
            "buffer" : 0,
            "byteLength" : 768,
            "byteOffset" : 0
        },
        {
            "buffer" : 0,
            "byteLength" : 768,
            "byteOffset" : 768
        },
        {
            "buffer" : 0,
            "byteLength" : 512,
            "byteOffset" : 1536
        },
        {
            "buffer" : 0,
            "byteLength" : 168,
            "byteOffset" : 2048
        },
        {
            "buffer" : 0,
            "byteLength" : 384,
            "byteOffset" : 2216
        },
        {
            "buffer" : 0,
            "byteLength" : 384,
            "byteOffset" : 2600
        },
        {
            "buffer" : 0,
            "byteLength" : 256,
            "byteOffset" : 2984
        },
        {
            "buffer" : 0,
            "byteLength" : 96,
            "byteOffset" : 3240
        },
        {
            "buffer" : 0,
            "byteLength" : 3840,
            "byteOffset" : 3336
        },
        {
            "buffer" : 0,
            "byteLength" : 3840,
            "byteOffset" : 7176
        },
        {
            "buffer" : 0,
            "byteLength" : 2560,
            "byteOffset" : 11016
        },
        {
            "buffer" : 0,
            "byteLength" : 960,
            "byteOffset" : 13576
        },
        {
            "buffer" : 0,
            "byteLength" : 13080,
            "byteOffset" : 14536
        },
        {
            "buffer" : 0,
            "byteLength" : 13080,
            "byteOffset" : 27616
        },
        {
            "buffer" : 0,
            "byteLength" : 8720,
            "byteOffset" : 40696
        },
        {
            "buffer" : 0,
            "byteLength" : 3696,
            "byteOffset" : 49416
        },
        {
            "buffer" : 0,
            "byteLength" : 528,
            "byteOffset" : 53112
        },
        {
            "buffer" : 0,
            "byteLength" : 528,
            "byteOffset" : 53640
        },
        {
            "buffer" : 0,
            "byteLength" : 352,
            "byteOffset" : 54168
        },
        {
            "buffer" : 0,
            "byteLength" : 120,
            "byteOffset" : 54520
        },
        {
            "buffer" : 0,
            "byteLength" : 624,
            "byteOffset" : 54640
        },
        {
            "buffer" : 0,
            "byteLength" : 624,
            "byteOffset" : 55264
        },
        {
            "buffer" : 0,
            "byteLength" : 416,
            "byteOffset" : 55888
        },
        {
            "buffer" : 0,
            "byteLength" : 156,
            "byteOffset" : 56304
        },
        {
            "buffer" : 0,
            "byteLength" : 864,
            "byteOffset" : 56460
        },
        {
            "buffer" : 0,
            "byteLength" : 864,
            "byteOffset" : 57324
        },
        {
            "buffer" : 0,
            "byteLength" : 576,
            "byteOffset" : 58188
        },
        {
            "buffer" : 0,
            "byteLength" : 192,
            "byteOffset" : 58764
        },
        {
            "buffer" : 0,
            "byteLength" : 768,
            "byteOffset" : 58956
        },
        {
            "buffer" : 0,
            "byteLength" : 768,
            "byteOffset" : 59724
        },
        {
            "buffer" : 0,
            "byteLength" : 512,
            "byteOffset" : 60492
        },
        {
            "buffer" : 0,
            "byteLength" : 180,
            "byteOffset" : 61004
        }
    ],
    "buffers" : [
        {
            "byteLength" : 61184,
            "uri" : "data:application/octet-stream;base64,"
        }
    ]
}
